<?xml version="1.0" standalone="no"?>
<!DOCTYPE svg PUBLIC "-//W3C//DTD SVG 1.1//EN" "http://www.w3.org/Graphics/SVG/1.1/DTD/svg11.dtd">
<svg version="1.1" id="Layer_1" xmlns="http://www.w3.org/2000/svg" xmlns:xlink="http://www.w3.org/1999/xlink" x="0px" y="0px" viewBox="0 0 1625.22 1150.16" style="enable-background:new 0 0 1625.22 1150.16;" xml:space="preserve" width="1625.219970703125" height="1150.1600341796875">
<style type="text/css">
	.st0{fill:#FEE589;}
	.st1{fill:#9A1420;}
	.st2{fill:#EF4136;}
	.st3{fill:#F15A29;}
	.st4{fill:#F7941D;}
	.st5{fill:url(#SVGID_1_);}
	.st6{fill:url(#SVGID_00000013177335283638255590000005756355443289421442_);}
	.st7{fill:#5B83C3;}
	.st8{fill:#5759A7;}
	.st9{fill:url(#SVGID_00000093138651264022615470000009619921545710772870_);}
	.st10{fill:url(#SVGID_00000015338535892836055370000008859007448731722681_);}
	.st11{fill:url(#SVGID_00000111193638179807598570000016116506391109295788_);}
	.st12{fill:url(#SVGID_00000018215089453554339490000001851481314691899282_);}
	.st13{fill:url(#SVGID_00000074432997467616574600000015098426739780015548_);}
	.st14{fill:url(#SVGID_00000139996789301100486940000005094171296558939567_);}
	.st15{fill:url(#SVGID_00000057107763476819911140000006166329437804472715_);}
	.st16{fill:url(#SVGID_00000041981016697423640700000016831715943067100571_);}
	.st17{fill:url(#SVGID_00000061446932914639002850000002163296807887670203_);}
	.st18{fill:url(#SVGID_00000163043437415075230930000012492688836354955167_);}
	.st19{fill:url(#SVGID_00000119079635709227503000000010108713128560727222_);}
	.st20{fill:url(#SVGID_00000149360429325457685060000005076384091644517809_);}
	.st21{fill:url(#SVGID_00000165914325653784400180000011191363650426602390_);}
	.st22{fill:url(#SVGID_00000044865888749371395850000017320156156836354729_);}
	.st23{fill:url(#SVGID_00000143579648281019216770000014045076237753123996_);}
	.st24{fill:url(#SVGID_00000147212948522520207320000002300880152374269850_);}
	.st25{fill:url(#SVGID_00000146480633473104072730000012257141084496609665_);}
	.st26{fill:url(#SVGID_00000036936999757183547450000008947928788169081532_);}
	.st27{fill:url(#SVGID_00000168833645239524421380000001032727539717567621_);}
	.st28{fill:url(#SVGID_00000160159191368379030610000016521673132349785007_);}
	.st29{fill:url(#SVGID_00000036246566500176956150000007930562873334589312_);}
	.st30{fill:url(#SVGID_00000149352805456003192280000000406095207401573782_);}
	.st31{fill:url(#SVGID_00000073001696965801113520000016754798717403073422_);}
	.st32{fill:url(#SVGID_00000018918099702845286630000001487165503336263328_);}
	.st33{fill:url(#SVGID_00000129186999437574743060000013741877614262167463_);}
	.st34{fill:url(#SVGID_00000085935996074080291880000006073446016296653988_);}
	.st35{fill:url(#SVGID_00000096777494727069447670000004741168942781411258_);}
	.st36{fill:url(#SVGID_00000173859182438223361400000014658534685328701312_);}
	.st37{fill:url(#SVGID_00000093899792693875834480000015423935012943890861_);}
	.st38{fill:url(#SVGID_00000153686407902672355160000017288947810799808914_);}
	.st39{fill:url(#SVGID_00000075843885475504463380000005743883423736913306_);}
	.st40{fill:url(#SVGID_00000152242692674241810380000004697859033918131106_);}
</style>
<g>
	<linearGradient id="SVGID_1_" gradientUnits="userSpaceOnUse" x1="1192.7411" y1="567.021" x2="1300.191" y2="567.021">
		<stop offset="0" style="stop-color:#4657A6"/>
		<stop offset="0.0805" style="stop-color:#4360AC"/>
		<stop offset="0.1774" style="stop-color:#4166B0"/>
		<stop offset="0.2809" style="stop-color:#4067B1"/>
		<stop offset="0.6685" style="stop-color:#70C492"/>
		<stop offset="0.8876" style="stop-color:#6ABD45"/>
		<stop offset="1" style="stop-color:#8AC540"/>
	</linearGradient>
	<path class="st5" d="M1300.19,291.7v549.51c0,19.12-14.5,34.61-32.38,34.61c-17.89,0-32.39-15.49-32.39-34.61V390.8   c-14.23,20.49-28.45,41-42.68,61.49V341.78c16.23-23.2,31.35-44.73,44.84-63.92c0.31-0.44,0.76-1.08,1.37-1.86   c3.2-4.13,10.47-12.28,21.17-15.97c12.91-4.46,22.1,0.56,24.87,2.34c0.31,0.21,0.62,0.42,0.93,0.65c0.32,0.23,0.67,0.51,1.02,0.78   C1294.97,270.1,1300.19,280.24,1300.19,291.7z"/>
	
		<linearGradient id="SVGID_00000163752566247972369590000009490333978222201245_" gradientUnits="userSpaceOnUse" x1="325.0311" y1="567.0443" x2="432.481" y2="567.0443">
		<stop offset="0" style="stop-color:#4657A6"/>
		<stop offset="0.0805" style="stop-color:#4360AC"/>
		<stop offset="0.1774" style="stop-color:#4166B0"/>
		<stop offset="0.2809" style="stop-color:#4067B1"/>
		<stop offset="0.6685" style="stop-color:#70C492"/>
		<stop offset="0.8876" style="stop-color:#6ABD45"/>
		<stop offset="1" style="stop-color:#8AC540"/>
	</linearGradient>
	<path style="fill:url(#SVGID_00000163752566247972369590000009490333978222201245_);" d="M387.64,277.9   c13.49,19.18,28.61,40.72,44.84,63.91v110.51c-14.23-20.49-28.45-40.99-42.68-61.48v450.37c0,19.12-14.5,34.61-32.39,34.61   c-17.88,0-32.38-15.49-32.38-34.61V291.75c0-11.47,5.22-21.6,13.25-27.9c0.35-0.29,0.7-0.55,1.02-0.79   c0.31-0.22,0.62-0.43,0.93-0.64c2.77-1.78,11.96-6.8,24.87-2.35c10.7,3.7,17.97,11.84,21.17,15.97   C386.88,276.82,387.33,277.47,387.64,277.9z"/>
	
		<linearGradient id="SVGID_00000033330808001210913350000015044300362718842520_" gradientUnits="userSpaceOnUse" x1="432.481" y1="527.5508" x2="539.9711" y2="527.5508">
		<stop offset="0" style="stop-color:#4657A6"/>
		<stop offset="0.0805" style="stop-color:#4360AC"/>
		<stop offset="0.1774" style="stop-color:#4166B0"/>
		<stop offset="0.2809" style="stop-color:#4067B1"/>
		<stop offset="0.6685" style="stop-color:#70C492"/>
		<stop offset="0.8876" style="stop-color:#6ABD45"/>
		<stop offset="1" style="stop-color:#8AC540"/>
	</linearGradient>
	<path style="fill:url(#SVGID_00000033330808001210913350000015044300362718842520_);" d="M539.97,292.81v115.25   c-14.24-21.4-28.48-42.79-42.72-64.19v469.51c0,19.93-14.5,36.08-32.39,36.08c-17.88,0-32.38-16.15-32.38-36.08V240.52   c0-11.78,5.07-22.24,12.91-28.81c0.08-0.09,0.17-0.16,0.26-0.22c0.37-0.3,0.74-0.6,1.11-0.88c0.02-0.01,0.05-0.04,0.07-0.06   c0.16-0.1,0.33-0.23,0.49-0.36c0.03-0.02,0.06-0.03,0.09-0.05c0.08-0.06,0.16-0.13,0.24-0.17c0.01-0.01,0.02-0.02,0.03-0.02   c0.1-0.06,0.2-0.14,0.3-0.2c0.11-0.07,0.23-0.15,0.34-0.21c0.01-0.01,0.02-0.01,0.03-0.03c0.42-0.18,4.85-2.74,9.95-3.59   c0.33-0.05,0.67-0.09,1.02-0.14c0.26-0.03,0.53-0.05,0.8-0.06c0.27-0.03,0.55-0.04,0.83-0.05c1.02-0.05,2.08-0.03,3.19,0.03   c0.34,0.03,0.68,0.05,1.03,0.09c0.32,0.03,0.63,0.07,0.93,0.12c0.6,0.08,1.22,0.19,1.86,0.32c3.88,0.83,6.77,2.33,8.69,3.34   c4.38,2.31,7.25,4.87,10.14,7.46c3.03,2.72,5.37,5.29,6.99,7.22c0.61,0.82,1.08,1.49,1.39,1.96   C508.65,246.21,523.75,268.65,539.97,292.81z"/>
	
		<linearGradient id="SVGID_00000112634295262112248190000003033042239332720020_" gradientUnits="userSpaceOnUse" x1="1085.2511" y1="527.5233" x2="1192.7411" y2="527.5233">
		<stop offset="0" style="stop-color:#4657A6"/>
		<stop offset="0.0805" style="stop-color:#4360AC"/>
		<stop offset="0.1774" style="stop-color:#4166B0"/>
		<stop offset="0.2809" style="stop-color:#4067B1"/>
		<stop offset="0.6685" style="stop-color:#70C492"/>
		<stop offset="0.8876" style="stop-color:#6ABD45"/>
		<stop offset="1" style="stop-color:#8AC540"/>
	</linearGradient>
	<path style="fill:url(#SVGID_00000112634295262112248190000003033042239332720020_);" d="M1192.74,240.46v572.92   c0,19.93-14.5,36.08-32.38,36.08c-17.89,0-32.39-16.15-32.39-36.08V343.84c-14.24,21.4-28.48,42.79-42.72,64.19V292.78   c16.22-24.17,31.31-46.62,44.8-66.61c0.31-0.47,0.78-1.14,1.39-1.97c1.63-1.92,3.96-4.49,7-7.2c2.88-2.6,5.75-5.17,10.13-7.48   c1.92-1.01,4.81-2.52,8.69-3.33c0.64-0.14,1.26-0.25,1.86-0.32c0.3-0.04,0.61-0.09,0.93-0.12c0.35-0.04,0.69-0.06,1.02-0.09   c1.11-0.07,2.18-0.08,3.2-0.04c0.28,0.01,0.56,0.03,0.83,0.06c0.27,0.01,0.54,0.03,0.8,0.06c0.35,0.03,0.69,0.08,1.02,0.14   c5.12,0.87,9.56,3.45,9.95,3.61c0.01,0,0.02,0,0.03,0.01c0.11,0.07,0.23,0.15,0.34,0.21c0.1,0.07,0.2,0.14,0.3,0.21   c0.01,0,0.02,0.01,0.03,0.02c0.08,0.04,0.16,0.09,0.24,0.17c0.03,0.02,0.06,0.03,0.09,0.05c0.16,0.13,0.33,0.24,0.49,0.36   c0.02,0.02,0.05,0.04,0.07,0.05c0.37,0.29,0.74,0.59,1.11,0.88c0.09,0.07,0.18,0.14,0.26,0.23   C1187.67,218.23,1192.74,228.69,1192.74,240.46z"/>
	
		<linearGradient id="SVGID_00000100347142813272984120000002273896274227409067_" gradientUnits="userSpaceOnUse" x1="539.9711" y1="484.3095" x2="1085.2511" y2="484.3095">
		<stop offset="0" style="stop-color:#4657A6"/>
		<stop offset="0.0805" style="stop-color:#4360AC"/>
		<stop offset="0.1774" style="stop-color:#4166B0"/>
		<stop offset="0.2809" style="stop-color:#4067B1"/>
		<stop offset="0.6685" style="stop-color:#70C492"/>
		<stop offset="0.8876" style="stop-color:#6ABD45"/>
		<stop offset="1" style="stop-color:#8AC540"/>
	</linearGradient>
	<path style="fill:url(#SVGID_00000100347142813272984120000002273896274227409067_);" d="M1085.25,185.08v597.21   c0,20.77-14.5,37.61-32.39,37.61c-17.88,0-32.38-16.84-32.38-37.61V292.72c-56.46,88.36-112.93,176.72-169.4,265.08   c-12.82,20.07-25.65,40.15-38.48,60.22c-12.84-20.07-25.67-40.15-38.49-60.22c-56.46-88.35-112.92-176.7-169.37-265.03v489.57   c0,20.76-14.5,37.6-32.38,37.6c-17.89,0-32.39-16.84-32.39-37.6V185.13c0-12.26,5.06-23.14,12.89-30.01   c0.26-0.23,0.51-0.45,0.75-0.66c0.45-0.38,0.92-0.74,1.39-1.09c0.12-0.09,0.24-0.16,0.36-0.24s0.24-0.17,0.36-0.25   c0.04-0.02,0.08-0.04,0.12-0.08c0.09-0.06,0.19-0.11,0.29-0.18c0.33-0.21,0.72-0.45,1.15-0.68c0.01-0.01,0.03-0.02,0.05-0.03   c0.18-0.1,0.38-0.2,0.58-0.3c0.05-0.04,0.1-0.06,0.15-0.09c0.18-0.09,0.36-0.18,0.55-0.26c0.36-0.18,0.73-0.34,1.12-0.51   c0.69-0.29,1.44-0.57,2.25-0.84c0.25-0.07,0.51-0.15,0.78-0.22c0.05-0.02,0.11-0.04,0.17-0.05c0.31-0.09,0.64-0.17,0.97-0.25   c0.41-0.1,0.84-0.19,1.29-0.26c0.31-0.07,0.63-0.11,0.95-0.16c0.28-0.04,0.56-0.07,0.85-0.1c0.15-0.03,0.3-0.04,0.45-0.05   c0.36-0.04,0.72-0.06,1.09-0.07c0.41-0.02,0.83-0.04,1.26-0.04c3.05,0,6.47,0.53,10.21,1.92c10.79,4.02,18.06,12.95,21.2,17.37   c0,0.01,0.01,0.03,0.01,0.03c0.54,0.76,0.96,1.4,1.25,1.84c54.48,84.12,135.45,210.22,210.14,327.45   c74.69-117.25,155.67-243.36,210.16-327.49c0.29-0.45,0.71-1.08,1.25-1.85c0,0,0.01-0.01,0.01-0.02   c3.14-4.43,10.41-13.36,21.2-17.38c3.74-1.39,7.16-1.91,10.21-1.91c0.43,0,0.85,0.01,1.26,0.03c0.37,0.01,0.73,0.04,1.09,0.07   c0.15,0.01,0.3,0.03,0.45,0.05c0.29,0.03,0.57,0.07,0.85,0.1c0.32,0.05,0.64,0.1,0.95,0.17c0.45,0.07,0.88,0.16,1.29,0.25   c0.33,0.08,0.66,0.16,0.97,0.26c0.06,0.01,0.12,0.02,0.17,0.04c0.27,0.07,0.53,0.15,0.78,0.22c0.81,0.27,1.56,0.55,2.25,0.84   c0.39,0.17,0.76,0.34,1.12,0.51c0.19,0.08,0.37,0.17,0.55,0.27c0.05,0.02,0.1,0.04,0.15,0.08c0.2,0.1,0.4,0.21,0.58,0.3   c0.02,0.01,0.04,0.02,0.05,0.04c0.43,0.23,0.82,0.46,1.15,0.67c0.1,0.07,0.2,0.13,0.29,0.19c0.04,0.03,0.08,0.05,0.12,0.08   l0.36,0.24c0.12,0.08,0.24,0.15,0.36,0.24c0.47,0.35,0.94,0.71,1.39,1.1c0.24,0.2,0.49,0.43,0.75,0.66   C1080.19,161.94,1085.25,172.82,1085.25,185.08z"/>
</g>
<linearGradient id="SVGID_00000069379785209036782660000000457107231831834247_" gradientUnits="userSpaceOnUse" x1="393.039" y1="849.4655" x2="1232.1832" y2="849.4655">
	<stop offset="0" style="stop-color:#4657A6"/>
	<stop offset="0.0805" style="stop-color:#4360AC"/>
	<stop offset="0.1774" style="stop-color:#4166B0"/>
	<stop offset="0.2809" style="stop-color:#4067B1"/>
	<stop offset="0.6685" style="stop-color:#70C492"/>
	<stop offset="0.8876" style="stop-color:#6ABD45"/>
	<stop offset="1" style="stop-color:#8AC540"/>
</linearGradient>
<path style="fill:url(#SVGID_00000069379785209036782660000000457107231831834247_);" d="M810.81,795.82l-411.22,91  c-9.74,2.16-8.18,16.5,1.8,16.5h822.44c9.98,0,11.55-14.34,1.8-16.5l-411.22-91C813.23,795.55,812,795.55,810.81,795.82z"/>
</svg>