<?xml version="1.0" standalone="no"?>
<!DOCTYPE svg PUBLIC "-//W3C//DTD SVG 1.1//EN" "http://www.w3.org/Graphics/SVG/1.1/DTD/svg11.dtd">
<svg version="1.1" id="Layer_1" xmlns="http://www.w3.org/2000/svg" xmlns:xlink="http://www.w3.org/1999/xlink" x="0px" y="0px" viewBox="0 0 1625.22 1150.16" style="enable-background:new 0 0 1625.22 1150.16;" xml:space="preserve" width="1625.219970703125" height="1150.1600341796875">
<style type="text/css">
	.st0{fill:#FEE589;}
	.st1{fill:#9A1420;}
	.st2{fill:#EF4136;}
	.st3{fill:#F15A29;}
	.st4{fill:#F7941D;}
	.st5{fill:url(#SVGID_1_);}
	.st6{fill:url(#SVGID_00000032612226091679563180000000623076572060902801_);}
	.st7{fill:#5B83C3;}
	.st8{fill:#5759A7;}
	.st9{fill:url(#SVGID_00000014626756754540091980000016382024796440196528_);}
	.st10{fill:url(#SVGID_00000094593574415091990530000009962609160702894255_);}
	.st11{fill:#ED1C24;}
	.st12{fill:#2B3990;}
	.st13{fill:url(#SVGID_00000003805352229176957230000017454429632567840667_);}
	.st14{fill:url(#SVGID_00000075884946571063696620000010513735012786802577_);}
	.st15{fill:url(#SVGID_00000176020704613274235670000005412129743785514684_);}
	.st16{fill:url(#SVGID_00000111898249631031244600000006077811765531570329_);}
	.st17{fill:#27AAE1;}
</style>
<g>
	<path d="M1300.19,291.7v549.51c0,19.12-14.5,34.61-32.38,34.61c-17.89,0-32.39-15.49-32.39-34.61V390.8   c-14.23,20.49-28.45,41-42.68,61.49v361.1c0,19.93-14.5,36.08-32.38,36.08c-17.89,0-32.39-16.15-32.39-36.08V343.84   c-14.24,21.4-28.48,42.79-42.72,64.19V782.3c0,20.77-14.5,37.61-32.39,37.61c-17.88,0-32.38-16.84-32.38-37.61V292.73   c-56.46,88.36-112.93,176.72-169.4,265.08c-12.82,20.07-25.65,40.15-38.48,60.22c-12.84-20.07-25.67-40.15-38.49-60.22   c-56.46-88.35-112.92-176.7-169.37-265.03v489.57c0,20.76-14.5,37.6-32.38,37.6c-17.89,0-32.39-16.84-32.39-37.6V408.07   c-14.24-21.4-28.48-42.79-42.72-64.19v469.51c0,19.93-14.5,36.08-32.39,36.08c-17.88,0-32.38-16.15-32.38-36.08V452.32   c-14.23-20.49-28.45-40.99-42.68-61.48v450.37c0,19.12-14.5,34.61-32.39,34.61c-17.88,0-32.38-15.49-32.38-34.61V291.75   c0-11.46,5.22-21.6,13.25-27.9c0.35-0.28,0.7-0.55,1.02-0.79c0.31-0.22,0.62-0.43,0.93-0.64c2.77-1.78,11.96-6.8,24.87-2.35   c10.7,3.7,17.97,11.84,21.17,15.97c0.61,0.78,1.06,1.43,1.37,1.86c13.49,19.18,28.61,40.72,44.84,63.91V240.52   c0-11.77,5.07-22.23,12.91-28.8c0.08-0.1,0.17-0.16,0.26-0.22c0.37-0.31,0.74-0.6,1.11-0.88c0.02-0.01,0.05-0.05,0.07-0.07   c0.16-0.1,0.33-0.23,0.49-0.35c0.03-0.02,0.06-0.03,0.09-0.06c0.08-0.06,0.16-0.12,0.24-0.16c0.01-0.01,0.02-0.02,0.03-0.02   c0.1-0.07,0.2-0.14,0.3-0.2c0.11-0.08,0.23-0.15,0.34-0.21c0.01-0.01,0.02-0.01,0.03-0.03c0.42-0.18,4.85-2.74,9.95-3.6   c0.33-0.05,0.67-0.09,1.02-0.14c0.26-0.03,0.53-0.05,0.8-0.06c0.27-0.03,0.55-0.04,0.83-0.05c1.02-0.05,2.08-0.03,3.19,0.03   c0.34,0.03,0.68,0.05,1.03,0.1c0.32,0.03,0.63,0.07,0.93,0.11c0.6,0.08,1.22,0.19,1.86,0.33c3.88,0.82,6.77,2.32,8.69,3.34   c4.38,2.3,7.25,4.87,10.14,7.46c3.03,2.72,5.37,5.29,6.99,7.22c0.61,0.82,1.08,1.49,1.39,1.96c13.48,19.99,28.58,42.43,44.8,66.6   V185.14c0-12.26,5.06-23.14,12.89-30.01c0.26-0.23,0.51-0.45,0.75-0.66c0.45-0.38,0.92-0.74,1.39-1.09   c0.12-0.09,0.24-0.16,0.36-0.24s0.24-0.17,0.36-0.25c0.04-0.02,0.08-0.04,0.12-0.08c0.09-0.06,0.19-0.11,0.29-0.18   c0.33-0.21,0.72-0.45,1.15-0.68c0.01-0.01,0.03-0.02,0.05-0.03c0.18-0.1,0.38-0.2,0.58-0.3c0.05-0.04,0.1-0.06,0.15-0.09   c0.18-0.09,0.36-0.18,0.55-0.26c0.36-0.18,0.73-0.34,1.12-0.51c0.69-0.29,1.44-0.57,2.25-0.84c0.25-0.07,0.51-0.15,0.78-0.22   c0.05-0.02,0.11-0.04,0.17-0.05c0.31-0.09,0.64-0.17,0.97-0.25c0.41-0.1,0.84-0.19,1.29-0.26c0.31-0.07,0.63-0.11,0.95-0.16   c0.28-0.04,0.56-0.07,0.85-0.1c0.15-0.03,0.3-0.04,0.45-0.05c0.36-0.04,0.72-0.06,1.09-0.07c0.41-0.02,0.83-0.04,1.26-0.04   c3.05,0,6.47,0.53,10.21,1.92c10.79,4.02,18.06,12.95,21.2,17.37c0,0.01,0.01,0.03,0.01,0.03c0.54,0.76,0.96,1.4,1.25,1.84   C656.94,254,737.91,380.1,812.6,497.33c74.69-117.25,155.67-243.36,210.16-327.49c0.29-0.45,0.71-1.08,1.25-1.85   c0,0,0.01-0.01,0.01-0.02c3.14-4.43,10.41-13.36,21.2-17.38c3.74-1.39,7.16-1.91,10.21-1.91c0.43,0,0.85,0.01,1.26,0.03   c0.37,0.01,0.73,0.04,1.09,0.07c0.15,0.01,0.3,0.03,0.45,0.05c0.29,0.03,0.57,0.07,0.85,0.1c0.32,0.05,0.64,0.1,0.95,0.17   c0.45,0.07,0.88,0.16,1.29,0.25c0.33,0.08,0.66,0.16,0.97,0.26c0.06,0.01,0.12,0.02,0.17,0.04c0.27,0.07,0.53,0.15,0.78,0.22   c0.81,0.27,1.56,0.55,2.25,0.84c0.39,0.17,0.76,0.34,1.12,0.51c0.19,0.08,0.37,0.17,0.55,0.27c0.05,0.02,0.1,0.04,0.15,0.08   c0.2,0.1,0.4,0.21,0.58,0.3c0.02,0.01,0.04,0.02,0.05,0.04c0.43,0.23,0.82,0.46,1.15,0.67c0.1,0.07,0.2,0.13,0.29,0.19   c0.04,0.03,0.08,0.05,0.12,0.08l0.36,0.24c0.12,0.08,0.24,0.15,0.36,0.24c0.47,0.35,0.94,0.71,1.39,1.1   c0.24,0.2,0.49,0.43,0.75,0.66c7.83,6.86,12.89,17.74,12.89,30v107.69c16.22-24.16,31.31-46.61,44.8-66.61   c0.31-0.47,0.78-1.14,1.39-1.97c1.63-1.92,3.96-4.48,7-7.2c2.88-2.6,5.75-5.17,10.13-7.48c1.92-1.01,4.81-2.52,8.69-3.33   c0.64-0.14,1.26-0.26,1.86-0.33c0.3-0.04,0.61-0.09,0.93-0.11c0.35-0.05,0.69-0.07,1.02-0.1c1.11-0.07,2.18-0.08,3.2-0.04   c0.28,0.01,0.56,0.03,0.83,0.06c0.27,0.01,0.54,0.03,0.8,0.07c0.35,0.03,0.69,0.08,1.02,0.13c5.12,0.87,9.56,3.45,9.95,3.61   c0.01,0,0.02,0,0.03,0.01c0.11,0.07,0.23,0.14,0.34,0.21c0.1,0.07,0.2,0.13,0.3,0.21c0.01,0,0.02,0.01,0.03,0.02   c0.08,0.04,0.16,0.09,0.24,0.16c0.03,0.03,0.06,0.04,0.09,0.06c0.16,0.12,0.33,0.24,0.49,0.35c0.02,0.02,0.05,0.05,0.07,0.06   c0.37,0.29,0.74,0.58,1.11,0.88c0.09,0.07,0.18,0.13,0.26,0.23c7.84,6.57,12.91,17.03,12.91,28.8v101.31   c16.23-23.2,31.35-44.73,44.84-63.92c0.31-0.44,0.76-1.07,1.37-1.86c3.2-4.13,10.47-12.28,21.17-15.97   c12.91-4.46,22.1,0.56,24.87,2.34c0.31,0.21,0.62,0.42,0.93,0.65c0.32,0.23,0.67,0.51,1.02,0.78   C1294.97,270.1,1300.19,280.25,1300.19,291.7z"/>
</g>
<path d="M810.81,795.82l-411.22,91c-9.74,2.16-8.18,16.5,1.8,16.5h822.44c9.98,0,11.55-14.34,1.8-16.5l-411.22-91  C813.23,795.55,812,795.55,810.81,795.82z"/>
</svg>