<?xml version="1.0" encoding="utf-8"?>
<!-- Generator: Adobe Illustrator 27.6.1, SVG Export Plug-In . SVG Version: 6.00 Build 0)  -->
<svg version="1.1" id="Layer_1" xmlns="http://www.w3.org/2000/svg" xmlns:xlink="http://www.w3.org/1999/xlink" x="0px" y="0px"
	 viewBox="0 0 595.28 548.08" style="enable-background:new 0 0 595.28 548.08;" xml:space="preserve">
<style type="text/css">
	.st0{fill:#243439;}
</style>
<g>
	<path class="st0" d="M124.43,489.61H88.99c-3.58,0-6.49-2.91-6.49-6.5V447.6c0-5.79,6.99-8.69,11.07-4.6l34.92,34.99l0.52,0.52
		C133.1,482.6,130.21,489.61,124.43,489.61z"/>
	<polygon class="st0" points="512.77,439.91 512.77,489.61 482.38,489.61 299.64,306.5 256.46,263.22 82.51,88.91 82.51,58.47 
		132.09,58.47 296.45,223.15 	"/>
	<path class="st0" d="M470.85,58.47h35.44c3.58,0,6.49,2.91,6.49,6.5v35.51c0,5.79-6.99,8.69-11.07,4.6l-34.92-34.99l-0.52-0.52
		C462.18,65.47,465.07,58.47,470.85,58.47z"/>
</g>
</svg>
