<?xml version="1.0" standalone="no"?>
<!DOCTYPE svg PUBLIC "-//W3C//DTD SVG 1.1//EN" "http://www.w3.org/Graphics/SVG/1.1/DTD/svg11.dtd">
<svg version="1.1" id="Layer_1" xmlns="http://www.w3.org/2000/svg" xmlns:xlink="http://www.w3.org/1999/xlink" x="0px" y="0px" viewBox="0 0 1755.24 1150.16" style="enable-background:new 0 0 1755.24 1150.16;" xml:space="preserve" width="1755.239990234375" height="1150.1600341796875">
<style type="text/css">
	.st0{fill:#FEE589;}
	.st1{fill:#9A1420;}
	.st2{fill:#EF4136;}
	.st3{fill:#F15A29;}
	.st4{fill:#F7941D;}
	.st5{fill:url(#SVGID_1_);}
	.st6{fill:url(#SVGID_00000172421484853102824200000008258963579056055987_);}
	.st7{fill:#5B83C3;}
	.st8{fill:#5759A7;}
	.st9{fill:url(#SVGID_00000144321092602671428130000002045375128052279687_);}
	.st10{fill:url(#SVGID_00000113350015697776091390000000298654384789254275_);}
	.st11{fill:url(#SVGID_00000040556575323950811410000016160856643556869548_);}
	.st12{fill:url(#SVGID_00000041265001517194764420000010158551996734385024_);}
	.st13{fill:url(#SVGID_00000139998296693960422740000007671976272045570724_);}
	.st14{fill:url(#SVGID_00000069384518079746609620000011739135930281561992_);}
	.st15{fill:url(#SVGID_00000050651255435717350480000016393158733690594720_);}
	.st16{fill:url(#SVGID_00000067212347971992160220000003512860660388244159_);}
	.st17{fill:url(#SVGID_00000109734262121452420830000011410895963272128683_);}
	.st18{fill:url(#SVGID_00000093147073017943222360000010332677260634877857_);}
	.st19{fill:url(#SVGID_00000043423741405880293270000009326581782155330214_);}
	.st20{fill:url(#SVGID_00000170247676658852901980000012137160809263532734_);}
	.st21{fill:url(#SVGID_00000071548172889868261120000016903650824077970612_);}
	.st22{fill:url(#SVGID_00000115472374393287686920000013086772554572887992_);}
	.st23{fill:url(#SVGID_00000070809334069185844120000011881720458387661465_);}
	.st24{fill:url(#SVGID_00000060016711251840604370000013837523346695638700_);}
	.st25{fill:url(#SVGID_00000114062372710927772460000004589199639768667033_);}
	.st26{fill:url(#SVGID_00000101067806876673337790000005544396114791177654_);}
	.st27{fill:url(#SVGID_00000062891711887091807990000010792157813652400003_);}
	.st28{fill:url(#SVGID_00000032634412641793315140000018095834894584744359_);}
	.st29{fill:url(#SVGID_00000163053260876921610050000006449168713660540075_);}
	.st30{fill:url(#SVGID_00000165951627327115077020000004174197570268287873_);}
	.st31{fill:url(#SVGID_00000142138790670182132020000015809903344565817525_);}
	.st32{fill:url(#SVGID_00000123433367511345965260000006288107421544745345_);}
	.st33{fill:url(#SVGID_00000176762937665128755750000018028291147123234197_);}
	.st34{fill:url(#SVGID_00000047775098116518952720000016230088742049377443_);}
	.st35{fill:url(#SVGID_00000079453164202853019420000015403580176940985482_);}
	.st36{fill:url(#SVGID_00000002378385730640984800000008607286528154944683_);}
	.st37{fill:url(#SVGID_00000056426056591513843320000011272104942441729979_);}
	.st38{fill:url(#SVGID_00000098210518632566466420000003713730403062217856_);}
	.st39{fill:url(#SVGID_00000085948848288000132450000017843701159467144886_);}
	.st40{fill:url(#SVGID_00000039091479080538769370000000298127248874754446_);}
</style>
<g>
	<linearGradient id="SVGID_1_" gradientUnits="userSpaceOnUse" x1="1257.7499" y1="539.0858" x2="1365.2" y2="539.0858">
		<stop offset="0" style="stop-color:#EF5A5F"/>
		<stop offset="0.0282" style="stop-color:#EF5958"/>
		<stop offset="0.0885" style="stop-color:#EE564A"/>
		<stop offset="0.1502" style="stop-color:#EE543F"/>
		<stop offset="0.2135" style="stop-color:#EE5238"/>
		<stop offset="0.2809" style="stop-color:#EE5236"/>
		<stop offset="0.6685" style="stop-color:#CC5495"/>
		<stop offset="0.8876" style="stop-color:#B5569F"/>
		<stop offset="1" style="stop-color:#9B57A3"/>
	</linearGradient>
	<path class="st5" d="M1365.2,263.76v549.51c0,19.12-14.5,34.61-32.38,34.61c-17.89,0-32.39-15.49-32.39-34.61V362.86   c-14.23,20.49-28.45,41-42.68,61.49V313.84c16.23-23.2,31.35-44.73,44.84-63.92c0.31-0.44,0.76-1.08,1.37-1.86   c3.2-4.13,10.47-12.28,21.17-15.97c12.91-4.46,22.1,0.56,24.87,2.34c0.31,0.21,0.62,0.42,0.93,0.65c0.32,0.23,0.67,0.51,1.02,0.78   C1359.98,242.16,1365.2,252.31,1365.2,263.76z"/>
	
		<linearGradient id="SVGID_00000163787410296542644690000006904481110074344374_" gradientUnits="userSpaceOnUse" x1="390.04" y1="539.109" x2="497.4899" y2="539.109">
		<stop offset="0" style="stop-color:#EF5A5F"/>
		<stop offset="0.0282" style="stop-color:#EF5958"/>
		<stop offset="0.0885" style="stop-color:#EE564A"/>
		<stop offset="0.1502" style="stop-color:#EE543F"/>
		<stop offset="0.2135" style="stop-color:#EE5238"/>
		<stop offset="0.2809" style="stop-color:#EE5236"/>
		<stop offset="0.6685" style="stop-color:#CC5495"/>
		<stop offset="0.8876" style="stop-color:#B5569F"/>
		<stop offset="1" style="stop-color:#9B57A3"/>
	</linearGradient>
	<path style="fill:url(#SVGID_00000163787410296542644690000006904481110074344374_);" d="M452.65,249.96   c13.49,19.18,28.61,40.72,44.84,63.91v110.51c-14.23-20.49-28.45-40.99-42.68-61.48v450.37c0,19.12-14.5,34.61-32.39,34.61   c-17.88,0-32.38-15.49-32.38-34.61V263.81c0-11.47,5.22-21.6,13.25-27.9c0.35-0.29,0.7-0.55,1.02-0.79   c0.31-0.22,0.62-0.43,0.93-0.64c2.77-1.78,11.96-6.8,24.87-2.35c10.7,3.7,17.97,11.84,21.17,15.97   C451.89,248.88,452.34,249.53,452.65,249.96z"/>
	
		<linearGradient id="SVGID_00000160178719296773023160000002997365291554273929_" gradientUnits="userSpaceOnUse" x1="497.4899" y1="499.6156" x2="604.98" y2="499.6156">
		<stop offset="0" style="stop-color:#EF5A5F"/>
		<stop offset="0.0282" style="stop-color:#EF5958"/>
		<stop offset="0.0885" style="stop-color:#EE564A"/>
		<stop offset="0.1502" style="stop-color:#EE543F"/>
		<stop offset="0.2135" style="stop-color:#EE5238"/>
		<stop offset="0.2809" style="stop-color:#EE5236"/>
		<stop offset="0.6685" style="stop-color:#CC5495"/>
		<stop offset="0.8876" style="stop-color:#B5569F"/>
		<stop offset="1" style="stop-color:#9B57A3"/>
	</linearGradient>
	<path style="fill:url(#SVGID_00000160178719296773023160000002997365291554273929_);" d="M604.98,264.88v115.25   c-14.24-21.4-28.48-42.79-42.72-64.19v469.51c0,19.93-14.5,36.08-32.39,36.08c-17.88,0-32.38-16.15-32.38-36.08V212.58   c0-11.78,5.07-22.24,12.91-28.81c0.08-0.09,0.17-0.16,0.26-0.22c0.37-0.3,0.74-0.6,1.11-0.88c0.02-0.01,0.05-0.04,0.07-0.06   c0.16-0.1,0.33-0.23,0.49-0.36c0.03-0.02,0.06-0.03,0.09-0.05c0.08-0.06,0.16-0.13,0.24-0.17c0.01-0.01,0.02-0.02,0.03-0.02   c0.1-0.06,0.2-0.14,0.3-0.2c0.11-0.07,0.23-0.15,0.34-0.21c0.01-0.01,0.02-0.01,0.03-0.03c0.42-0.18,4.85-2.74,9.95-3.59   c0.33-0.05,0.67-0.09,1.02-0.14c0.26-0.03,0.53-0.05,0.8-0.06c0.27-0.03,0.55-0.04,0.83-0.05c1.02-0.05,2.08-0.03,3.19,0.03   c0.34,0.03,0.68,0.05,1.03,0.09c0.32,0.03,0.63,0.07,0.93,0.12c0.6,0.08,1.22,0.19,1.86,0.32c3.88,0.83,6.77,2.33,8.69,3.34   c4.38,2.31,7.25,4.87,10.14,7.46c3.03,2.72,5.37,5.29,6.99,7.22c0.61,0.82,1.08,1.49,1.39,1.96   C573.66,218.28,588.76,240.71,604.98,264.88z"/>
	
		<linearGradient id="SVGID_00000015337257835225552290000002402894014707462287_" gradientUnits="userSpaceOnUse" x1="1150.2599" y1="499.5881" x2="1257.7499" y2="499.5881">
		<stop offset="0" style="stop-color:#EF5A5F"/>
		<stop offset="0.0282" style="stop-color:#EF5958"/>
		<stop offset="0.0885" style="stop-color:#EE564A"/>
		<stop offset="0.1502" style="stop-color:#EE543F"/>
		<stop offset="0.2135" style="stop-color:#EE5238"/>
		<stop offset="0.2809" style="stop-color:#EE5236"/>
		<stop offset="0.6685" style="stop-color:#CC5495"/>
		<stop offset="0.8876" style="stop-color:#B5569F"/>
		<stop offset="1" style="stop-color:#9B57A3"/>
	</linearGradient>
	<path style="fill:url(#SVGID_00000015337257835225552290000002402894014707462287_);" d="M1257.75,212.53v572.92   c0,19.93-14.5,36.08-32.38,36.08c-17.89,0-32.39-16.15-32.39-36.08V315.9c-14.24,21.4-28.48,42.79-42.72,64.19V264.84   c16.22-24.17,31.31-46.62,44.8-66.61c0.31-0.47,0.78-1.14,1.39-1.97c1.63-1.92,3.96-4.49,7-7.2c2.88-2.6,5.75-5.17,10.13-7.48   c1.92-1.01,4.81-2.52,8.69-3.33c0.64-0.14,1.26-0.25,1.86-0.32c0.3-0.04,0.61-0.09,0.93-0.12c0.35-0.04,0.69-0.06,1.02-0.09   c1.11-0.07,2.18-0.08,3.2-0.04c0.28,0.01,0.56,0.03,0.83,0.06c0.27,0.01,0.54,0.03,0.8,0.06c0.35,0.03,0.69,0.08,1.02,0.14   c5.12,0.87,9.56,3.45,9.95,3.61c0.01,0,0.02,0,0.03,0.01c0.11,0.07,0.23,0.15,0.34,0.21c0.1,0.07,0.2,0.14,0.3,0.21   c0.01,0,0.02,0.01,0.03,0.02c0.08,0.04,0.16,0.09,0.24,0.17c0.03,0.02,0.06,0.03,0.09,0.05c0.16,0.13,0.33,0.24,0.49,0.36   c0.02,0.02,0.05,0.04,0.07,0.05c0.37,0.29,0.74,0.59,1.11,0.88c0.09,0.07,0.18,0.14,0.26,0.23   C1252.68,190.3,1257.75,200.76,1257.75,212.53z"/>
	
		<linearGradient id="SVGID_00000026136540445673671330000014793909547380859572_" gradientUnits="userSpaceOnUse" x1="604.98" y1="456.3743" x2="1150.2599" y2="456.3743">
		<stop offset="0" style="stop-color:#EF5A5F"/>
		<stop offset="0.0282" style="stop-color:#EF5958"/>
		<stop offset="0.0885" style="stop-color:#EE564A"/>
		<stop offset="0.1502" style="stop-color:#EE543F"/>
		<stop offset="0.2135" style="stop-color:#EE5238"/>
		<stop offset="0.2809" style="stop-color:#EE5236"/>
		<stop offset="0.6685" style="stop-color:#CC5495"/>
		<stop offset="0.8876" style="stop-color:#B5569F"/>
		<stop offset="1" style="stop-color:#9B57A3"/>
	</linearGradient>
	<path style="fill:url(#SVGID_00000026136540445673671330000014793909547380859572_);" d="M1150.26,157.15v597.21   c0,20.77-14.5,37.61-32.39,37.61c-17.88,0-32.38-16.84-32.38-37.61V264.79c-56.46,88.36-112.93,176.72-169.4,265.08   c-12.82,20.07-25.65,40.15-38.48,60.22c-12.84-20.07-25.67-40.15-38.49-60.22c-56.46-88.35-112.92-176.7-169.37-265.03v489.57   c0,20.76-14.5,37.6-32.38,37.6c-17.89,0-32.39-16.84-32.39-37.6V157.2c0-12.26,5.06-23.14,12.89-30.01   c0.26-0.23,0.51-0.45,0.75-0.66c0.45-0.38,0.92-0.74,1.39-1.09c0.12-0.09,0.24-0.16,0.36-0.24s0.24-0.17,0.36-0.25   c0.04-0.02,0.08-0.04,0.12-0.08c0.09-0.06,0.19-0.11,0.29-0.18c0.33-0.21,0.72-0.45,1.15-0.68c0.01-0.01,0.03-0.02,0.05-0.03   c0.18-0.1,0.38-0.2,0.58-0.3c0.05-0.04,0.1-0.06,0.15-0.09c0.18-0.09,0.36-0.18,0.55-0.26c0.36-0.18,0.73-0.34,1.12-0.51   c0.69-0.29,1.44-0.57,2.25-0.84c0.25-0.07,0.51-0.15,0.78-0.22c0.05-0.02,0.11-0.04,0.17-0.05c0.31-0.09,0.64-0.17,0.97-0.25   c0.41-0.1,0.84-0.19,1.29-0.26c0.31-0.07,0.63-0.11,0.95-0.16c0.28-0.04,0.56-0.07,0.85-0.1c0.15-0.03,0.3-0.04,0.45-0.05   c0.36-0.04,0.72-0.06,1.09-0.07c0.41-0.02,0.83-0.04,1.26-0.04c3.05,0,6.47,0.53,10.21,1.92c10.79,4.02,18.06,12.95,21.2,17.37   c0,0.01,0.01,0.03,0.01,0.03c0.54,0.76,0.96,1.4,1.25,1.84c54.48,84.12,135.45,210.22,210.14,327.45   c74.69-117.25,155.67-243.36,210.16-327.49c0.29-0.45,0.71-1.08,1.25-1.85c0,0,0.01-0.01,0.01-0.02   c3.14-4.43,10.41-13.36,21.2-17.38c3.74-1.39,7.16-1.91,10.21-1.91c0.43,0,0.85,0.01,1.26,0.03c0.37,0.01,0.73,0.04,1.09,0.07   c0.15,0.01,0.3,0.03,0.45,0.05c0.29,0.03,0.57,0.07,0.85,0.1c0.32,0.05,0.64,0.1,0.95,0.17c0.45,0.07,0.88,0.16,1.29,0.25   c0.33,0.08,0.66,0.16,0.97,0.26c0.06,0.01,0.12,0.02,0.17,0.04c0.27,0.07,0.53,0.15,0.78,0.22c0.81,0.27,1.56,0.55,2.25,0.84   c0.39,0.17,0.76,0.34,1.12,0.51c0.19,0.08,0.37,0.17,0.55,0.27c0.05,0.02,0.1,0.04,0.15,0.08c0.2,0.1,0.4,0.21,0.58,0.3   c0.02,0.01,0.04,0.02,0.05,0.04c0.43,0.23,0.82,0.46,1.15,0.67c0.1,0.07,0.2,0.13,0.29,0.19c0.04,0.03,0.08,0.05,0.12,0.08   l0.36,0.24c0.12,0.08,0.24,0.15,0.36,0.24c0.47,0.35,0.94,0.71,1.39,1.1c0.24,0.2,0.49,0.43,0.75,0.66   C1145.2,134.01,1150.26,144.89,1150.26,157.15z"/>
</g>
<linearGradient id="SVGID_00000117645149556843763500000009975395982843558810_" gradientUnits="userSpaceOnUse" x1="458.0479" y1="821.5582" x2="1297.192" y2="821.5582">
	<stop offset="0" style="stop-color:#F89B45"/>
	<stop offset="2.564240e-03" style="stop-color:#F89944"/>
	<stop offset="0.0555" style="stop-color:#F58135"/>
	<stop offset="0.1095" style="stop-color:#F36D2B"/>
	<stop offset="0.1644" style="stop-color:#F15E26"/>
	<stop offset="0.2208" style="stop-color:#F05323"/>
	<stop offset="0.2809" style="stop-color:#F05023"/>
	<stop offset="0.6685" style="stop-color:#EE4687"/>
	<stop offset="0.8876" style="stop-color:#C358A1"/>
	<stop offset="1" style="stop-color:#8557A3"/>
</linearGradient>
<path style="fill:url(#SVGID_00000117645149556843763500000009975395982843558810_);" d="M875.82,767.91l-411.22,91  c-9.74,2.16-8.18,16.5,1.8,16.5h822.44c9.98,0,11.55-14.34,1.8-16.5l-411.22-91C878.24,767.65,877,767.65,875.82,767.91z"/>
</svg>