<svg xmlns="http://www.w3.org/2000/svg" xmlns:xlink="http://www.w3.org/1999/xlink" width="288" zoomAndPan="magnify" viewBox="0 0 216 207.75" height="277" preserveAspectRatio="xMidYMid meet" version="1.0"><defs><g/><clipPath id="b36ccd06c9"><path d="M 154 201 L 199 201 L 199 206 L 154 206 Z M 154 201 " clip-rule="nonzero"/></clipPath><clipPath id="ca615ef645"><path d="M 154.652344 200.652344 L 198.820312 202.292969 L 198.652344 206.785156 L 154.488281 205.144531 Z M 154.652344 200.652344 " clip-rule="nonzero"/></clipPath><clipPath id="c21078992f"><path d="M 154.652344 200.652344 L 198.820312 202.292969 L 198.652344 206.785156 L 154.488281 205.144531 Z M 154.652344 200.652344 " clip-rule="nonzero"/></clipPath></defs><path fill="#5791ad" d="M 203.371094 30.085938 L 203.371094 136.738281 C 203.371094 140.449219 200.554688 143.453125 197.082031 143.453125 C 193.609375 143.453125 190.792969 140.449219 190.792969 136.738281 L 190.792969 49.320312 C 188.03125 53.296875 185.269531 57.277344 182.507812 61.253906 L 182.507812 131.339844 C 182.507812 135.207031 179.691406 138.339844 176.21875 138.339844 C 172.746094 138.339844 169.929688 135.207031 169.929688 131.339844 L 169.929688 40.207031 C 167.164062 44.359375 164.398438 48.511719 161.632812 52.664062 L 161.632812 125.304688 C 161.632812 129.335938 158.820312 132.605469 155.34375 132.605469 C 151.871094 132.605469 149.058594 129.335938 149.058594 125.304688 L 149.058594 30.285156 C 138.09375 47.433594 127.128906 64.582031 116.164062 81.734375 C 113.671875 85.628906 111.183594 89.527344 108.691406 93.421875 C 106.199219 89.527344 103.707031 85.628906 101.21875 81.734375 C 90.253906 64.585938 79.289062 47.4375 68.328125 30.292969 L 68.328125 125.3125 C 68.328125 129.34375 65.511719 132.613281 62.042969 132.613281 C 58.566406 132.613281 55.75 129.34375 55.75 125.3125 L 55.75 52.671875 C 52.988281 48.515625 50.222656 44.367188 47.457031 40.214844 L 47.457031 131.339844 C 47.457031 135.207031 44.640625 138.339844 41.167969 138.339844 C 37.695312 138.339844 34.878906 135.207031 34.878906 131.339844 L 34.878906 61.261719 C 32.117188 57.285156 29.355469 53.304688 26.589844 49.328125 L 26.589844 136.738281 C 26.589844 140.449219 23.777344 143.453125 20.300781 143.453125 C 16.832031 143.453125 14.015625 140.449219 14.015625 136.738281 L 14.015625 30.097656 C 14.015625 27.871094 15.027344 25.902344 16.585938 24.679688 C 16.65625 24.625 16.722656 24.574219 16.785156 24.527344 C 16.847656 24.484375 16.90625 24.445312 16.964844 24.402344 C 17.503906 24.058594 19.289062 23.082031 21.796875 23.945312 C 23.875 24.664062 25.285156 26.242188 25.90625 27.046875 C 26.023438 27.199219 26.113281 27.324219 26.171875 27.410156 C 28.792969 31.132812 31.726562 35.308594 34.878906 39.8125 L 34.878906 20.152344 C 34.878906 17.867188 35.863281 15.835938 37.386719 14.5625 C 37.402344 14.542969 37.417969 14.53125 37.4375 14.519531 C 37.507812 14.460938 37.582031 14.402344 37.652344 14.347656 C 37.65625 14.347656 37.660156 14.339844 37.664062 14.335938 C 37.695312 14.316406 37.730469 14.292969 37.761719 14.265625 C 37.765625 14.261719 37.773438 14.261719 37.777344 14.257812 C 37.792969 14.246094 37.808594 14.230469 37.824219 14.222656 C 37.828125 14.222656 37.828125 14.21875 37.832031 14.21875 C 37.851562 14.207031 37.871094 14.191406 37.890625 14.179688 C 37.910156 14.167969 37.933594 14.152344 37.957031 14.140625 C 37.957031 14.136719 37.957031 14.136719 37.960938 14.132812 C 38.042969 14.101562 38.902344 13.605469 39.894531 13.4375 C 39.957031 13.425781 40.023438 13.417969 40.089844 13.410156 C 40.140625 13.40625 40.195312 13.402344 40.246094 13.398438 C 40.300781 13.394531 40.351562 13.390625 40.40625 13.386719 C 40.605469 13.378906 40.8125 13.382812 41.027344 13.394531 C 41.09375 13.402344 41.160156 13.40625 41.226562 13.414062 C 41.289062 13.417969 41.347656 13.425781 41.40625 13.4375 C 41.523438 13.453125 41.644531 13.472656 41.769531 13.5 C 42.523438 13.660156 43.082031 13.949219 43.457031 14.144531 C 44.308594 14.59375 44.863281 15.09375 45.425781 15.59375 C 46.011719 16.125 46.46875 16.621094 46.78125 16.996094 C 46.902344 17.15625 46.992188 17.285156 47.050781 17.375 C 49.671875 21.257812 52.601562 25.613281 55.75 30.300781 L 55.75 9.402344 C 55.75 7.023438 56.734375 4.910156 58.253906 3.578125 C 58.304688 3.535156 58.355469 3.492188 58.398438 3.449219 C 58.488281 3.375 58.578125 3.304688 58.671875 3.238281 C 58.695312 3.222656 58.71875 3.207031 58.738281 3.191406 C 58.761719 3.175781 58.785156 3.160156 58.808594 3.144531 C 58.816406 3.140625 58.824219 3.136719 58.832031 3.128906 C 58.851562 3.117188 58.871094 3.105469 58.890625 3.09375 C 58.953125 3.050781 59.03125 3.003906 59.113281 2.960938 C 59.113281 2.960938 59.117188 2.957031 59.121094 2.957031 C 59.15625 2.9375 59.195312 2.917969 59.234375 2.898438 C 59.246094 2.890625 59.253906 2.886719 59.265625 2.878906 C 59.300781 2.863281 59.335938 2.84375 59.371094 2.828125 C 59.441406 2.792969 59.511719 2.761719 59.589844 2.730469 C 59.722656 2.675781 59.867188 2.621094 60.027344 2.566406 C 60.074219 2.554688 60.125 2.539062 60.175781 2.523438 C 60.1875 2.519531 60.199219 2.515625 60.210938 2.515625 C 60.269531 2.496094 60.335938 2.480469 60.398438 2.464844 C 60.476562 2.445312 60.5625 2.429688 60.648438 2.414062 C 60.710938 2.402344 60.769531 2.394531 60.832031 2.382812 C 60.886719 2.375 60.941406 2.371094 61 2.367188 C 61.027344 2.359375 61.058594 2.359375 61.085938 2.355469 C 61.15625 2.347656 61.226562 2.34375 61.296875 2.34375 C 61.378906 2.339844 61.457031 2.335938 61.542969 2.335938 C 62.132812 2.335938 62.796875 2.4375 63.523438 2.707031 C 65.621094 3.488281 67.03125 5.21875 67.640625 6.078125 C 67.640625 6.082031 67.644531 6.085938 67.644531 6.085938 C 67.75 6.230469 67.828125 6.355469 67.886719 6.441406 C 78.464844 22.769531 94.1875 47.242188 108.691406 69.996094 C 123.195312 47.238281 138.917969 22.761719 149.5 6.433594 C 149.554688 6.347656 149.636719 6.222656 149.742188 6.074219 C 149.742188 6.074219 149.746094 6.074219 149.746094 6.070312 C 150.355469 5.210938 151.765625 3.476562 153.859375 2.695312 C 154.585938 2.425781 155.25 2.328125 155.84375 2.328125 C 155.925781 2.328125 156.007812 2.328125 156.089844 2.332031 C 156.160156 2.335938 156.230469 2.339844 156.300781 2.347656 C 156.328125 2.347656 156.359375 2.351562 156.386719 2.355469 C 156.445312 2.363281 156.5 2.371094 156.550781 2.375 C 156.613281 2.382812 156.675781 2.394531 156.738281 2.40625 C 156.824219 2.421875 156.90625 2.4375 156.988281 2.457031 C 157.050781 2.472656 157.117188 2.488281 157.175781 2.507812 C 157.1875 2.507812 157.199219 2.511719 157.207031 2.515625 C 157.261719 2.527344 157.3125 2.542969 157.359375 2.558594 C 157.519531 2.609375 157.664062 2.664062 157.796875 2.71875 C 157.871094 2.753906 157.945312 2.785156 158.015625 2.820312 C 158.050781 2.835938 158.085938 2.851562 158.121094 2.871094 C 158.132812 2.875 158.140625 2.878906 158.152344 2.886719 C 158.191406 2.90625 158.226562 2.929688 158.261719 2.945312 C 158.265625 2.949219 158.269531 2.949219 158.273438 2.953125 C 158.355469 2.996094 158.433594 3.042969 158.496094 3.082031 C 158.515625 3.097656 158.535156 3.109375 158.550781 3.121094 C 158.558594 3.125 158.566406 3.128906 158.574219 3.136719 L 158.644531 3.183594 C 158.667969 3.199219 158.691406 3.210938 158.714844 3.230469 C 158.808594 3.296875 158.898438 3.367188 158.984375 3.441406 C 159.03125 3.480469 159.082031 3.527344 159.132812 3.570312 C 160.652344 4.902344 161.632812 7.015625 161.632812 9.394531 L 161.632812 30.296875 C 164.785156 25.605469 167.714844 21.25 170.332031 17.367188 C 170.394531 17.273438 170.484375 17.144531 170.605469 16.984375 C 170.921875 16.613281 171.371094 16.113281 171.960938 15.589844 C 172.523438 15.082031 173.078125 14.585938 173.929688 14.132812 C 174.300781 13.941406 174.863281 13.648438 175.617188 13.488281 C 175.742188 13.460938 175.863281 13.441406 175.976562 13.425781 C 176.035156 13.417969 176.097656 13.40625 176.160156 13.402344 C 176.226562 13.394531 176.292969 13.390625 176.355469 13.386719 C 176.574219 13.371094 176.78125 13.367188 176.976562 13.375 C 177.03125 13.378906 177.085938 13.382812 177.140625 13.390625 C 177.191406 13.390625 177.246094 13.394531 177.296875 13.402344 C 177.363281 13.40625 177.429688 13.417969 177.492188 13.429688 C 178.488281 13.597656 179.347656 14.097656 179.425781 14.128906 C 179.425781 14.128906 179.429688 14.128906 179.429688 14.128906 C 179.453125 14.144531 179.476562 14.15625 179.496094 14.167969 C 179.515625 14.183594 179.535156 14.195312 179.554688 14.210938 C 179.558594 14.210938 179.558594 14.210938 179.5625 14.214844 C 179.578125 14.222656 179.59375 14.234375 179.609375 14.246094 C 179.613281 14.25 179.621094 14.253906 179.625 14.257812 C 179.65625 14.28125 179.6875 14.304688 179.71875 14.328125 C 179.722656 14.332031 179.730469 14.335938 179.734375 14.335938 C 179.804688 14.394531 179.878906 14.449219 179.949219 14.507812 C 179.96875 14.519531 179.984375 14.535156 180 14.550781 C 181.523438 15.828125 182.507812 17.855469 182.507812 20.140625 L 182.507812 39.804688 C 185.660156 35.304688 188.59375 31.125 191.214844 27.402344 C 191.273438 27.316406 191.363281 27.191406 191.480469 27.039062 C 192.101562 26.238281 193.511719 24.65625 195.589844 23.941406 C 198.097656 23.074219 199.882812 24.046875 200.417969 24.394531 C 200.480469 24.433594 200.539062 24.476562 200.601562 24.519531 C 200.664062 24.566406 200.730469 24.617188 200.796875 24.671875 C 202.359375 25.894531 203.371094 27.863281 203.371094 30.085938 Z M 203.371094 30.085938 " fill-opacity="1" fill-rule="nonzero"/><path fill="#5791ad" d="M 108.34375 127.933594 L 28.492188 145.597656 C 26.601562 146.015625 26.90625 148.796875 28.84375 148.796875 L 188.542969 148.796875 C 190.480469 148.796875 190.785156 146.015625 188.894531 145.597656 L 109.042969 127.933594 C 108.8125 127.882812 108.574219 127.882812 108.34375 127.933594 Z M 108.34375 127.933594 " fill-opacity="1" fill-rule="nonzero"/><g fill="#5791ad" fill-opacity="1"><g transform="translate(0.732598, 178.408228)"><g><path d="M 12.046875 0 L 12.03125 -8.15625 L 7.984375 -1.359375 L 7.25 -1.359375 L 3.21875 -8.109375 L 3.21875 0 L 1.671875 0 L 1.671875 -11.1875 L 2.984375 -11.1875 L 7.65625 -3.328125 L 12.265625 -11.1875 L 13.578125 -11.1875 L 13.59375 0 Z M 12.046875 0 "/></g></g></g><g fill="#a1b4bd" fill-opacity="1"><g transform="translate(15.983776, 178.408228)"><g><path d="M 4.546875 -8.546875 C 5.710938 -8.546875 6.609375 -8.257812 7.234375 -7.6875 C 7.859375 -7.113281 8.171875 -6.253906 8.171875 -5.109375 L 8.171875 0 L 6.71875 0 L 6.71875 -1.125 C 6.457031 -0.726562 6.085938 -0.425781 5.609375 -0.21875 C 5.140625 -0.0078125 4.582031 0.09375 3.9375 0.09375 C 2.988281 0.09375 2.226562 -0.132812 1.65625 -0.59375 C 1.082031 -1.050781 0.796875 -1.648438 0.796875 -2.390625 C 0.796875 -3.140625 1.066406 -3.738281 1.609375 -4.1875 C 2.148438 -4.644531 3.015625 -4.875 4.203125 -4.875 L 6.640625 -4.875 L 6.640625 -5.171875 C 6.640625 -5.835938 6.445312 -6.34375 6.0625 -6.6875 C 5.675781 -7.039062 5.109375 -7.21875 4.359375 -7.21875 C 3.859375 -7.21875 3.367188 -7.132812 2.890625 -6.96875 C 2.410156 -6.8125 2.003906 -6.59375 1.671875 -6.3125 L 1.03125 -7.46875 C 1.46875 -7.8125 1.988281 -8.078125 2.59375 -8.265625 C 3.207031 -8.453125 3.859375 -8.546875 4.546875 -8.546875 Z M 4.1875 -1.09375 C 4.769531 -1.09375 5.273438 -1.222656 5.703125 -1.484375 C 6.128906 -1.742188 6.441406 -2.113281 6.640625 -2.59375 L 6.640625 -3.765625 L 4.265625 -3.765625 C 2.960938 -3.765625 2.3125 -3.332031 2.3125 -2.46875 C 2.3125 -2.039062 2.476562 -1.703125 2.8125 -1.453125 C 3.144531 -1.210938 3.601562 -1.09375 4.1875 -1.09375 Z M 4.1875 -1.09375 "/></g></g></g><g fill="#a1b4bd" fill-opacity="1"><g transform="translate(25.537982, 178.408228)"><g><path d="M 2.921875 -7.046875 C 3.191406 -7.535156 3.585938 -7.90625 4.109375 -8.15625 C 4.628906 -8.414062 5.265625 -8.546875 6.015625 -8.546875 L 6.015625 -7.0625 C 5.921875 -7.070312 5.800781 -7.078125 5.65625 -7.078125 C 4.820312 -7.078125 4.164062 -6.828125 3.6875 -6.328125 C 3.21875 -5.835938 2.984375 -5.132812 2.984375 -4.21875 L 2.984375 0 L 1.453125 0 L 1.453125 -8.46875 L 2.921875 -8.46875 Z M 2.921875 -7.046875 "/></g></g></g><g fill="#a1b4bd" fill-opacity="1"><g transform="translate(32.088525, 178.408228)"><g><path d="M 0.375 3.203125 C 0 3.203125 -0.347656 3.15625 -0.671875 3.0625 C -0.992188 2.976562 -1.257812 2.851562 -1.46875 2.6875 L -0.96875 1.5 C -0.65625 1.769531 -0.242188 1.90625 0.265625 1.90625 C 0.671875 1.90625 0.984375 1.78125 1.203125 1.53125 C 1.421875 1.28125 1.53125 0.910156 1.53125 0.421875 L 1.53125 -8.46875 L 3.0625 -8.46875 L 3.0625 0.390625 C 3.0625 1.253906 2.828125 1.9375 2.359375 2.4375 C 1.890625 2.945312 1.226562 3.203125 0.375 3.203125 Z M 2.296875 -10.109375 C 1.992188 -10.109375 1.742188 -10.203125 1.546875 -10.390625 C 1.359375 -10.578125 1.265625 -10.8125 1.265625 -11.09375 C 1.265625 -11.375 1.359375 -11.609375 1.546875 -11.796875 C 1.742188 -11.992188 1.992188 -12.09375 2.296875 -12.09375 C 2.597656 -12.09375 2.847656 -12 3.046875 -11.8125 C 3.242188 -11.632812 3.34375 -11.40625 3.34375 -11.125 C 3.34375 -10.832031 3.242188 -10.585938 3.046875 -10.390625 C 2.847656 -10.203125 2.597656 -10.109375 2.296875 -10.109375 Z M 2.296875 -10.109375 "/></g></g></g><g fill="#a1b4bd" fill-opacity="1"><g transform="translate(36.625969, 178.408228)"><g><path d="M 9.109375 -4.1875 C 9.109375 -4.070312 9.097656 -3.914062 9.078125 -3.71875 L 2.203125 -3.71875 C 2.296875 -2.976562 2.625 -2.378906 3.1875 -1.921875 C 3.75 -1.472656 4.445312 -1.25 5.28125 -1.25 C 6.289062 -1.25 7.101562 -1.585938 7.71875 -2.265625 L 8.5625 -1.28125 C 8.175781 -0.832031 7.695312 -0.488281 7.125 -0.25 C 6.5625 -0.0195312 5.929688 0.09375 5.234375 0.09375 C 4.335938 0.09375 3.539062 -0.0859375 2.84375 -0.453125 C 2.15625 -0.816406 1.617188 -1.328125 1.234375 -1.984375 C 0.859375 -2.648438 0.671875 -3.398438 0.671875 -4.234375 C 0.671875 -5.054688 0.851562 -5.796875 1.21875 -6.453125 C 1.59375 -7.117188 2.097656 -7.632812 2.734375 -8 C 3.378906 -8.363281 4.109375 -8.546875 4.921875 -8.546875 C 5.734375 -8.546875 6.457031 -8.363281 7.09375 -8 C 7.726562 -7.632812 8.222656 -7.117188 8.578125 -6.453125 C 8.929688 -5.796875 9.109375 -5.039062 9.109375 -4.1875 Z M 4.921875 -7.25 C 4.179688 -7.25 3.5625 -7.023438 3.0625 -6.578125 C 2.570312 -6.140625 2.285156 -5.554688 2.203125 -4.828125 L 7.640625 -4.828125 C 7.554688 -5.535156 7.265625 -6.113281 6.765625 -6.5625 C 6.273438 -7.019531 5.660156 -7.25 4.921875 -7.25 Z M 4.921875 -7.25 "/></g></g></g><g fill="#a1b4bd" fill-opacity="1"><g transform="translate(46.403856, 178.408228)"><g><path d="M 1.453125 -11.859375 L 2.984375 -11.859375 L 2.984375 0 L 1.453125 0 Z M 1.453125 -11.859375 "/></g></g></g><g fill="#a1b4bd" fill-opacity="1"><g transform="translate(50.861424, 178.408228)"><g><path d="M 1.453125 -11.859375 L 2.984375 -11.859375 L 2.984375 0 L 1.453125 0 Z M 1.453125 -11.859375 "/></g></g></g><g fill="#a1b4bd" fill-opacity="1"><g transform="translate(55.318992, 178.408228)"><g><path d="M 4.546875 -8.546875 C 5.710938 -8.546875 6.609375 -8.257812 7.234375 -7.6875 C 7.859375 -7.113281 8.171875 -6.253906 8.171875 -5.109375 L 8.171875 0 L 6.71875 0 L 6.71875 -1.125 C 6.457031 -0.726562 6.085938 -0.425781 5.609375 -0.21875 C 5.140625 -0.0078125 4.582031 0.09375 3.9375 0.09375 C 2.988281 0.09375 2.226562 -0.132812 1.65625 -0.59375 C 1.082031 -1.050781 0.796875 -1.648438 0.796875 -2.390625 C 0.796875 -3.140625 1.066406 -3.738281 1.609375 -4.1875 C 2.148438 -4.644531 3.015625 -4.875 4.203125 -4.875 L 6.640625 -4.875 L 6.640625 -5.171875 C 6.640625 -5.835938 6.445312 -6.34375 6.0625 -6.6875 C 5.675781 -7.039062 5.109375 -7.21875 4.359375 -7.21875 C 3.859375 -7.21875 3.367188 -7.132812 2.890625 -6.96875 C 2.410156 -6.8125 2.003906 -6.59375 1.671875 -6.3125 L 1.03125 -7.46875 C 1.46875 -7.8125 1.988281 -8.078125 2.59375 -8.265625 C 3.207031 -8.453125 3.859375 -8.546875 4.546875 -8.546875 Z M 4.1875 -1.09375 C 4.769531 -1.09375 5.273438 -1.222656 5.703125 -1.484375 C 6.128906 -1.742188 6.441406 -2.113281 6.640625 -2.59375 L 6.640625 -3.765625 L 4.265625 -3.765625 C 2.960938 -3.765625 2.3125 -3.332031 2.3125 -2.46875 C 2.3125 -2.039062 2.476562 -1.703125 2.8125 -1.453125 C 3.144531 -1.210938 3.601562 -1.09375 4.1875 -1.09375 Z M 4.1875 -1.09375 "/></g></g></g><g fill="#000000" fill-opacity="1"><g transform="translate(64.862454, 178.408228)"><g/></g></g><g fill="#5791ad" fill-opacity="1"><g transform="translate(69.158066, 178.408228)"><g><path d="M 12.046875 0 L 12.03125 -8.15625 L 7.984375 -1.359375 L 7.25 -1.359375 L 3.21875 -8.109375 L 3.21875 0 L 1.671875 0 L 1.671875 -11.1875 L 2.984375 -11.1875 L 7.65625 -3.328125 L 12.265625 -11.1875 L 13.578125 -11.1875 L 13.59375 0 Z M 12.046875 0 "/></g></g></g><g fill="#a1b4bd" fill-opacity="1"><g transform="translate(84.409244, 178.408228)"><g><path d="M 4.546875 -8.546875 C 5.710938 -8.546875 6.609375 -8.257812 7.234375 -7.6875 C 7.859375 -7.113281 8.171875 -6.253906 8.171875 -5.109375 L 8.171875 0 L 6.71875 0 L 6.71875 -1.125 C 6.457031 -0.726562 6.085938 -0.425781 5.609375 -0.21875 C 5.140625 -0.0078125 4.582031 0.09375 3.9375 0.09375 C 2.988281 0.09375 2.226562 -0.132812 1.65625 -0.59375 C 1.082031 -1.050781 0.796875 -1.648438 0.796875 -2.390625 C 0.796875 -3.140625 1.066406 -3.738281 1.609375 -4.1875 C 2.148438 -4.644531 3.015625 -4.875 4.203125 -4.875 L 6.640625 -4.875 L 6.640625 -5.171875 C 6.640625 -5.835938 6.445312 -6.34375 6.0625 -6.6875 C 5.675781 -7.039062 5.109375 -7.21875 4.359375 -7.21875 C 3.859375 -7.21875 3.367188 -7.132812 2.890625 -6.96875 C 2.410156 -6.8125 2.003906 -6.59375 1.671875 -6.3125 L 1.03125 -7.46875 C 1.46875 -7.8125 1.988281 -8.078125 2.59375 -8.265625 C 3.207031 -8.453125 3.859375 -8.546875 4.546875 -8.546875 Z M 4.1875 -1.09375 C 4.769531 -1.09375 5.273438 -1.222656 5.703125 -1.484375 C 6.128906 -1.742188 6.441406 -2.113281 6.640625 -2.59375 L 6.640625 -3.765625 L 4.265625 -3.765625 C 2.960938 -3.765625 2.3125 -3.332031 2.3125 -2.46875 C 2.3125 -2.039062 2.476562 -1.703125 2.8125 -1.453125 C 3.144531 -1.210938 3.601562 -1.09375 4.1875 -1.09375 Z M 4.1875 -1.09375 "/></g></g></g><g fill="#a1b4bd" fill-opacity="1"><g transform="translate(93.963451, 178.408228)"><g><path d="M 2.921875 -7.046875 C 3.191406 -7.535156 3.585938 -7.90625 4.109375 -8.15625 C 4.628906 -8.414062 5.265625 -8.546875 6.015625 -8.546875 L 6.015625 -7.0625 C 5.921875 -7.070312 5.800781 -7.078125 5.65625 -7.078125 C 4.820312 -7.078125 4.164062 -6.828125 3.6875 -6.328125 C 3.21875 -5.835938 2.984375 -5.132812 2.984375 -4.21875 L 2.984375 0 L 1.453125 0 L 1.453125 -8.46875 L 2.921875 -8.46875 Z M 2.921875 -7.046875 "/></g></g></g><g fill="#a1b4bd" fill-opacity="1"><g transform="translate(100.513994, 178.408228)"><g><path d="M 4.75 -3.953125 L 2.984375 -2.3125 L 2.984375 0 L 1.453125 0 L 1.453125 -11.859375 L 2.984375 -11.859375 L 2.984375 -4.25 L 7.609375 -8.46875 L 9.46875 -8.46875 L 5.890625 -4.96875 L 9.8125 0 L 7.921875 0 Z M 4.75 -3.953125 "/></g></g></g><g fill="#a1b4bd" fill-opacity="1"><g transform="translate(110.355788, 178.408228)"><g><path d="M 9.109375 -4.1875 C 9.109375 -4.070312 9.097656 -3.914062 9.078125 -3.71875 L 2.203125 -3.71875 C 2.296875 -2.976562 2.625 -2.378906 3.1875 -1.921875 C 3.75 -1.472656 4.445312 -1.25 5.28125 -1.25 C 6.289062 -1.25 7.101562 -1.585938 7.71875 -2.265625 L 8.5625 -1.28125 C 8.175781 -0.832031 7.695312 -0.488281 7.125 -0.25 C 6.5625 -0.0195312 5.929688 0.09375 5.234375 0.09375 C 4.335938 0.09375 3.539062 -0.0859375 2.84375 -0.453125 C 2.15625 -0.816406 1.617188 -1.328125 1.234375 -1.984375 C 0.859375 -2.648438 0.671875 -3.398438 0.671875 -4.234375 C 0.671875 -5.054688 0.851562 -5.796875 1.21875 -6.453125 C 1.59375 -7.117188 2.097656 -7.632812 2.734375 -8 C 3.378906 -8.363281 4.109375 -8.546875 4.921875 -8.546875 C 5.734375 -8.546875 6.457031 -8.363281 7.09375 -8 C 7.726562 -7.632812 8.222656 -7.117188 8.578125 -6.453125 C 8.929688 -5.796875 9.109375 -5.039062 9.109375 -4.1875 Z M 4.921875 -7.25 C 4.179688 -7.25 3.5625 -7.023438 3.0625 -6.578125 C 2.570312 -6.140625 2.285156 -5.554688 2.203125 -4.828125 L 7.640625 -4.828125 C 7.554688 -5.535156 7.265625 -6.113281 6.765625 -6.5625 C 6.273438 -7.019531 5.660156 -7.25 4.921875 -7.25 Z M 4.921875 -7.25 "/></g></g></g><g fill="#a1b4bd" fill-opacity="1"><g transform="translate(120.133675, 178.408228)"><g><path d="M 6.21875 -0.5 C 5.988281 -0.300781 5.707031 -0.148438 5.375 -0.046875 C 5.050781 0.046875 4.710938 0.09375 4.359375 0.09375 C 3.503906 0.09375 2.84375 -0.132812 2.375 -0.59375 C 1.90625 -1.050781 1.671875 -1.707031 1.671875 -2.5625 L 1.671875 -7.203125 L 0.234375 -7.203125 L 0.234375 -8.46875 L 1.671875 -8.46875 L 1.671875 -10.328125 L 3.21875 -10.328125 L 3.21875 -8.46875 L 5.640625 -8.46875 L 5.640625 -7.203125 L 3.21875 -7.203125 L 3.21875 -2.625 C 3.21875 -2.164062 3.332031 -1.8125 3.5625 -1.5625 C 3.789062 -1.320312 4.117188 -1.203125 4.546875 -1.203125 C 5.015625 -1.203125 5.410156 -1.332031 5.734375 -1.59375 Z M 6.21875 -0.5 "/></g></g></g><g fill="#a1b4bd" fill-opacity="1"><g transform="translate(126.748125, 178.408228)"><g><path d="M 1.453125 -8.46875 L 2.984375 -8.46875 L 2.984375 0 L 1.453125 0 Z M 2.21875 -10.109375 C 1.914062 -10.109375 1.664062 -10.203125 1.46875 -10.390625 C 1.28125 -10.578125 1.1875 -10.8125 1.1875 -11.09375 C 1.1875 -11.375 1.28125 -11.609375 1.46875 -11.796875 C 1.664062 -11.992188 1.914062 -12.09375 2.21875 -12.09375 C 2.519531 -12.09375 2.769531 -12 2.96875 -11.8125 C 3.164062 -11.632812 3.265625 -11.40625 3.265625 -11.125 C 3.265625 -10.832031 3.164062 -10.585938 2.96875 -10.390625 C 2.769531 -10.203125 2.519531 -10.109375 2.21875 -10.109375 Z M 2.21875 -10.109375 "/></g></g></g><g fill="#a1b4bd" fill-opacity="1"><g transform="translate(131.205693, 178.408228)"><g><path d="M 5.984375 -8.546875 C 7.054688 -8.546875 7.910156 -8.234375 8.546875 -7.609375 C 9.179688 -6.992188 9.5 -6.082031 9.5 -4.875 L 9.5 0 L 7.953125 0 L 7.953125 -4.703125 C 7.953125 -5.523438 7.753906 -6.140625 7.359375 -6.546875 C 6.972656 -6.960938 6.410156 -7.171875 5.671875 -7.171875 C 4.835938 -7.171875 4.179688 -6.925781 3.703125 -6.4375 C 3.222656 -5.957031 2.984375 -5.265625 2.984375 -4.359375 L 2.984375 0 L 1.453125 0 L 1.453125 -8.46875 L 2.921875 -8.46875 L 2.921875 -7.1875 C 3.234375 -7.625 3.648438 -7.957031 4.171875 -8.1875 C 4.703125 -8.425781 5.304688 -8.546875 5.984375 -8.546875 Z M 5.984375 -8.546875 "/></g></g></g><g fill="#a1b4bd" fill-opacity="1"><g transform="translate(142.085979, 178.408228)"><g><path d="M 9.5625 -8.46875 L 9.5625 -1.15625 C 9.5625 0.332031 9.191406 1.429688 8.453125 2.140625 C 7.722656 2.847656 6.625 3.203125 5.15625 3.203125 C 4.363281 3.203125 3.601562 3.09375 2.875 2.875 C 2.15625 2.65625 1.570312 2.34375 1.125 1.9375 L 1.859375 0.75 C 2.253906 1.09375 2.738281 1.363281 3.3125 1.5625 C 3.894531 1.757812 4.492188 1.859375 5.109375 1.859375 C 6.097656 1.859375 6.832031 1.625 7.3125 1.15625 C 7.789062 0.6875 8.03125 -0.0234375 8.03125 -0.984375 L 8.03125 -1.65625 C 7.664062 -1.21875 7.21875 -0.890625 6.6875 -0.671875 C 6.15625 -0.460938 5.582031 -0.359375 4.96875 -0.359375 C 4.15625 -0.359375 3.421875 -0.53125 2.765625 -0.875 C 2.117188 -1.21875 1.609375 -1.703125 1.234375 -2.328125 C 0.859375 -2.953125 0.671875 -3.660156 0.671875 -4.453125 C 0.671875 -5.253906 0.859375 -5.96875 1.234375 -6.59375 C 1.609375 -7.21875 2.117188 -7.695312 2.765625 -8.03125 C 3.421875 -8.375 4.15625 -8.546875 4.96875 -8.546875 C 5.613281 -8.546875 6.207031 -8.425781 6.75 -8.1875 C 7.300781 -7.957031 7.753906 -7.613281 8.109375 -7.15625 L 8.109375 -8.46875 Z M 5.140625 -1.6875 C 5.703125 -1.6875 6.203125 -1.800781 6.640625 -2.03125 C 7.085938 -2.269531 7.4375 -2.597656 7.6875 -3.015625 C 7.9375 -3.441406 8.0625 -3.921875 8.0625 -4.453125 C 8.0625 -5.273438 7.785156 -5.9375 7.234375 -6.4375 C 6.691406 -6.945312 5.992188 -7.203125 5.140625 -7.203125 C 4.285156 -7.203125 3.582031 -6.945312 3.03125 -6.4375 C 2.488281 -5.9375 2.21875 -5.273438 2.21875 -4.453125 C 2.21875 -3.921875 2.34375 -3.441406 2.59375 -3.015625 C 2.84375 -2.597656 3.1875 -2.269531 3.625 -2.03125 C 4.070312 -1.800781 4.578125 -1.6875 5.140625 -1.6875 Z M 5.140625 -1.6875 "/></g></g></g><g fill="#365b6d" fill-opacity="1"><g transform="translate(153.103924, 178.408228)"><g/></g></g><g fill="#5791ad" fill-opacity="1"><g transform="translate(157.399532, 178.408228)"><g><path d="M 12.046875 0 L 12.03125 -8.15625 L 7.984375 -1.359375 L 7.25 -1.359375 L 3.21875 -8.109375 L 3.21875 0 L 1.671875 0 L 1.671875 -11.1875 L 2.984375 -11.1875 L 7.65625 -3.328125 L 12.265625 -11.1875 L 13.578125 -11.1875 L 13.59375 0 Z M 12.046875 0 "/></g></g></g><g fill="#a1b4bd" fill-opacity="1"><g transform="translate(172.650714, 178.408228)"><g><path d="M 9.109375 -4.1875 C 9.109375 -4.070312 9.097656 -3.914062 9.078125 -3.71875 L 2.203125 -3.71875 C 2.296875 -2.976562 2.625 -2.378906 3.1875 -1.921875 C 3.75 -1.472656 4.445312 -1.25 5.28125 -1.25 C 6.289062 -1.25 7.101562 -1.585938 7.71875 -2.265625 L 8.5625 -1.28125 C 8.175781 -0.832031 7.695312 -0.488281 7.125 -0.25 C 6.5625 -0.0195312 5.929688 0.09375 5.234375 0.09375 C 4.335938 0.09375 3.539062 -0.0859375 2.84375 -0.453125 C 2.15625 -0.816406 1.617188 -1.328125 1.234375 -1.984375 C 0.859375 -2.648438 0.671875 -3.398438 0.671875 -4.234375 C 0.671875 -5.054688 0.851562 -5.796875 1.21875 -6.453125 C 1.59375 -7.117188 2.097656 -7.632812 2.734375 -8 C 3.378906 -8.363281 4.109375 -8.546875 4.921875 -8.546875 C 5.734375 -8.546875 6.457031 -8.363281 7.09375 -8 C 7.726562 -7.632812 8.222656 -7.117188 8.578125 -6.453125 C 8.929688 -5.796875 9.109375 -5.039062 9.109375 -4.1875 Z M 4.921875 -7.25 C 4.179688 -7.25 3.5625 -7.023438 3.0625 -6.578125 C 2.570312 -6.140625 2.285156 -5.554688 2.203125 -4.828125 L 7.640625 -4.828125 C 7.554688 -5.535156 7.265625 -6.113281 6.765625 -6.5625 C 6.273438 -7.019531 5.660156 -7.25 4.921875 -7.25 Z M 4.921875 -7.25 "/></g></g></g><g fill="#a1b4bd" fill-opacity="1"><g transform="translate(182.428601, 178.408228)"><g><path d="M 9.453125 -11.859375 L 9.453125 0 L 7.96875 0 L 7.96875 -1.34375 C 7.632812 -0.875 7.203125 -0.515625 6.671875 -0.265625 C 6.148438 -0.0234375 5.578125 0.09375 4.953125 0.09375 C 4.128906 0.09375 3.394531 -0.0820312 2.75 -0.4375 C 2.101562 -0.800781 1.59375 -1.3125 1.21875 -1.96875 C 0.851562 -2.625 0.671875 -3.378906 0.671875 -4.234375 C 0.671875 -5.085938 0.851562 -5.835938 1.21875 -6.484375 C 1.59375 -7.140625 2.101562 -7.644531 2.75 -8 C 3.394531 -8.363281 4.128906 -8.546875 4.953125 -8.546875 C 5.554688 -8.546875 6.113281 -8.429688 6.625 -8.203125 C 7.144531 -7.972656 7.570312 -7.632812 7.90625 -7.1875 L 7.90625 -11.859375 Z M 5.078125 -1.25 C 5.609375 -1.25 6.09375 -1.375 6.53125 -1.625 C 6.96875 -1.875 7.304688 -2.222656 7.546875 -2.671875 C 7.796875 -3.128906 7.921875 -3.648438 7.921875 -4.234375 C 7.921875 -4.816406 7.796875 -5.332031 7.546875 -5.78125 C 7.304688 -6.238281 6.96875 -6.585938 6.53125 -6.828125 C 6.09375 -7.078125 5.609375 -7.203125 5.078125 -7.203125 C 4.535156 -7.203125 4.046875 -7.078125 3.609375 -6.828125 C 3.179688 -6.585938 2.84375 -6.238281 2.59375 -5.78125 C 2.34375 -5.332031 2.21875 -4.816406 2.21875 -4.234375 C 2.21875 -3.648438 2.34375 -3.128906 2.59375 -2.671875 C 2.84375 -2.222656 3.179688 -1.875 3.609375 -1.625 C 4.046875 -1.375 4.535156 -1.25 5.078125 -1.25 Z M 5.078125 -1.25 "/></g></g></g><g fill="#a1b4bd" fill-opacity="1"><g transform="translate(193.324866, 178.408228)"><g><path d="M 1.453125 -8.46875 L 2.984375 -8.46875 L 2.984375 0 L 1.453125 0 Z M 2.21875 -10.109375 C 1.914062 -10.109375 1.664062 -10.203125 1.46875 -10.390625 C 1.28125 -10.578125 1.1875 -10.8125 1.1875 -11.09375 C 1.1875 -11.375 1.28125 -11.609375 1.46875 -11.796875 C 1.664062 -11.992188 1.914062 -12.09375 2.21875 -12.09375 C 2.519531 -12.09375 2.769531 -12 2.96875 -11.8125 C 3.164062 -11.632812 3.265625 -11.40625 3.265625 -11.125 C 3.265625 -10.832031 3.164062 -10.585938 2.96875 -10.390625 C 2.769531 -10.203125 2.519531 -10.109375 2.21875 -10.109375 Z M 2.21875 -10.109375 "/></g></g></g><g fill="#a1b4bd" fill-opacity="1"><g transform="translate(197.782434, 178.408228)"><g><path d="M 4.546875 -8.546875 C 5.710938 -8.546875 6.609375 -8.257812 7.234375 -7.6875 C 7.859375 -7.113281 8.171875 -6.253906 8.171875 -5.109375 L 8.171875 0 L 6.71875 0 L 6.71875 -1.125 C 6.457031 -0.726562 6.085938 -0.425781 5.609375 -0.21875 C 5.140625 -0.0078125 4.582031 0.09375 3.9375 0.09375 C 2.988281 0.09375 2.226562 -0.132812 1.65625 -0.59375 C 1.082031 -1.050781 0.796875 -1.648438 0.796875 -2.390625 C 0.796875 -3.140625 1.066406 -3.738281 1.609375 -4.1875 C 2.148438 -4.644531 3.015625 -4.875 4.203125 -4.875 L 6.640625 -4.875 L 6.640625 -5.171875 C 6.640625 -5.835938 6.445312 -6.34375 6.0625 -6.6875 C 5.675781 -7.039062 5.109375 -7.21875 4.359375 -7.21875 C 3.859375 -7.21875 3.367188 -7.132812 2.890625 -6.96875 C 2.410156 -6.8125 2.003906 -6.59375 1.671875 -6.3125 L 1.03125 -7.46875 C 1.46875 -7.8125 1.988281 -8.078125 2.59375 -8.265625 C 3.207031 -8.453125 3.859375 -8.546875 4.546875 -8.546875 Z M 4.1875 -1.09375 C 4.769531 -1.09375 5.273438 -1.222656 5.703125 -1.484375 C 6.128906 -1.742188 6.441406 -2.113281 6.640625 -2.59375 L 6.640625 -3.765625 L 4.265625 -3.765625 C 2.960938 -3.765625 2.3125 -3.332031 2.3125 -2.46875 C 2.3125 -2.039062 2.476562 -1.703125 2.8125 -1.453125 C 3.144531 -1.210938 3.601562 -1.09375 4.1875 -1.09375 Z M 4.1875 -1.09375 "/></g></g></g><g fill="#a1b4bd" fill-opacity="1"><g transform="translate(207.336641, 178.408228)"><g><path d="M 1.828125 0.09375 C 1.523438 0.09375 1.265625 -0.0078125 1.046875 -0.21875 C 0.835938 -0.425781 0.734375 -0.6875 0.734375 -1 C 0.734375 -1.3125 0.835938 -1.570312 1.046875 -1.78125 C 1.265625 -1.988281 1.523438 -2.09375 1.828125 -2.09375 C 2.117188 -2.09375 2.363281 -1.988281 2.5625 -1.78125 C 2.769531 -1.582031 2.875 -1.320312 2.875 -1 C 2.875 -0.6875 2.769531 -0.425781 2.5625 -0.21875 C 2.351562 -0.0078125 2.109375 0.09375 1.828125 0.09375 Z M 1.828125 0.09375 "/></g></g></g><g fill="#000000" fill-opacity="1"><g transform="translate(210.960077, 178.408228)"><g/></g></g><g fill="#365b6d" fill-opacity="1"><g transform="translate(17.707105, 198.439332)"><g><path d="M 1.09375 -4.890625 L 1.53125 -4.890625 L 1.140625 -3.046875 L 0.765625 -3.046875 Z M 1.09375 -4.890625 "/></g></g></g><g fill="#365b6d" fill-opacity="1"><g transform="translate(19.532007, 198.439332)"><g><path d="M 2.265625 -4.4375 L 0.546875 -4.4375 L 0.640625 -4.890625 L 4.59375 -4.890625 L 4.5 -4.4375 L 2.78125 -4.4375 L 1.890625 0 L 1.390625 0 Z M 2.265625 -4.4375 "/></g></g></g><g fill="#365b6d" fill-opacity="1"><g transform="translate(23.95793, 198.439332)"><g><path d="M 2.84375 -3.703125 C 3.257812 -3.703125 3.582031 -3.59375 3.8125 -3.375 C 4.039062 -3.164062 4.15625 -2.875 4.15625 -2.5 C 4.15625 -2.375 4.144531 -2.238281 4.125 -2.09375 L 3.703125 0 L 3.203125 0 L 3.625 -2.09375 C 3.644531 -2.226562 3.65625 -2.34375 3.65625 -2.4375 C 3.65625 -2.695312 3.570312 -2.894531 3.40625 -3.03125 C 3.25 -3.175781 3.015625 -3.25 2.703125 -3.25 C 2.304688 -3.25 1.976562 -3.140625 1.71875 -2.921875 C 1.46875 -2.710938 1.300781 -2.394531 1.21875 -1.96875 L 0.828125 0 L 0.328125 0 L 1.359375 -5.1875 L 1.859375 -5.1875 L 1.453125 -3.125 C 1.785156 -3.507812 2.25 -3.703125 2.84375 -3.703125 Z M 2.84375 -3.703125 "/></g></g></g><g fill="#365b6d" fill-opacity="1"><g transform="translate(29.104027, 198.439332)"><g><path d="M 1.046875 -3.671875 L 1.546875 -3.671875 L 0.828125 0 L 0.328125 0 Z M 1.515625 -4.484375 C 1.410156 -4.484375 1.328125 -4.515625 1.265625 -4.578125 C 1.203125 -4.640625 1.171875 -4.71875 1.171875 -4.8125 C 1.171875 -4.914062 1.207031 -5.003906 1.28125 -5.078125 C 1.351562 -5.148438 1.445312 -5.1875 1.5625 -5.1875 C 1.65625 -5.1875 1.734375 -5.15625 1.796875 -5.09375 C 1.867188 -5.03125 1.90625 -4.957031 1.90625 -4.875 C 1.90625 -4.757812 1.863281 -4.664062 1.78125 -4.59375 C 1.707031 -4.519531 1.617188 -4.484375 1.515625 -4.484375 Z M 1.515625 -4.484375 "/></g></g></g><g fill="#365b6d" fill-opacity="1"><g transform="translate(31.397398, 198.439332)"><g><path d="M 2.84375 -3.703125 C 3.257812 -3.703125 3.582031 -3.59375 3.8125 -3.375 C 4.039062 -3.164062 4.15625 -2.875 4.15625 -2.5 C 4.15625 -2.375 4.144531 -2.238281 4.125 -2.09375 L 3.703125 0 L 3.203125 0 L 3.625 -2.09375 C 3.644531 -2.226562 3.65625 -2.34375 3.65625 -2.4375 C 3.65625 -2.695312 3.570312 -2.894531 3.40625 -3.03125 C 3.25 -3.175781 3.015625 -3.25 2.703125 -3.25 C 2.304688 -3.25 1.976562 -3.140625 1.71875 -2.921875 C 1.46875 -2.710938 1.300781 -2.394531 1.21875 -1.96875 L 0.828125 0 L 0.328125 0 L 1.046875 -3.671875 L 1.53125 -3.671875 L 1.40625 -3.09375 C 1.757812 -3.5 2.238281 -3.703125 2.84375 -3.703125 Z M 2.84375 -3.703125 "/></g></g></g><g fill="#365b6d" fill-opacity="1"><g transform="translate(36.543495, 198.439332)"><g><path d="M 2.453125 -2.15625 L 3.765625 0 L 3.1875 0 L 2.0625 -1.859375 L 1.03125 -1.0625 L 0.828125 0 L 0.328125 0 L 1.359375 -5.1875 L 1.859375 -5.1875 L 1.15625 -1.703125 L 3.6875 -3.671875 L 4.390625 -3.671875 Z M 2.453125 -2.15625 "/></g></g></g><g fill="#365b6d" fill-opacity="1"><g transform="translate(41.08129, 198.439332)"><g/></g></g><g fill="#365b6d" fill-opacity="1"><g transform="translate(43.316894, 198.439332)"><g><path d="M 6.546875 -4.890625 L 5.5625 0 L 4.890625 0 L 5.609375 -3.53125 L 3.296875 -0.59375 L 2.96875 -0.59375 L 1.75 -3.609375 L 1.03125 0 L 0.359375 0 L 1.34375 -4.890625 L 1.90625 -4.890625 L 3.265625 -1.453125 L 5.9375 -4.890625 Z M 6.546875 -4.890625 "/></g></g></g><g fill="#365b6d" fill-opacity="1"><g transform="translate(50.406766, 198.439332)"><g><path d="M 4.484375 -3.703125 L 3.75 0 L 3.109375 0 L 3.203125 -0.453125 C 3.035156 -0.296875 2.84375 -0.171875 2.625 -0.078125 C 2.40625 0.00390625 2.164062 0.046875 1.90625 0.046875 C 1.582031 0.046875 1.296875 -0.015625 1.046875 -0.140625 C 0.804688 -0.273438 0.613281 -0.460938 0.46875 -0.703125 C 0.332031 -0.941406 0.265625 -1.226562 0.265625 -1.5625 C 0.265625 -1.976562 0.351562 -2.347656 0.53125 -2.671875 C 0.71875 -3.003906 0.96875 -3.265625 1.28125 -3.453125 C 1.601562 -3.640625 1.960938 -3.734375 2.359375 -3.734375 C 2.671875 -3.734375 2.941406 -3.675781 3.171875 -3.5625 C 3.398438 -3.457031 3.570312 -3.296875 3.6875 -3.078125 L 3.828125 -3.703125 Z M 2.046875 -0.546875 C 2.316406 -0.546875 2.5625 -0.609375 2.78125 -0.734375 C 3.007812 -0.867188 3.1875 -1.054688 3.3125 -1.296875 C 3.4375 -1.535156 3.5 -1.804688 3.5 -2.109375 C 3.5 -2.441406 3.398438 -2.695312 3.203125 -2.875 C 3.015625 -3.0625 2.742188 -3.15625 2.390625 -3.15625 C 2.117188 -3.15625 1.867188 -3.085938 1.640625 -2.953125 C 1.421875 -2.816406 1.25 -2.628906 1.125 -2.390625 C 1 -2.160156 0.9375 -1.890625 0.9375 -1.578125 C 0.9375 -1.253906 1.03125 -1 1.21875 -0.8125 C 1.414062 -0.632812 1.691406 -0.546875 2.046875 -0.546875 Z M 2.046875 -0.546875 "/></g></g></g><g fill="#365b6d" fill-opacity="1"><g transform="translate(55.587821, 198.439332)"><g><path d="M 1.546875 -3.15625 C 1.703125 -3.351562 1.898438 -3.5 2.140625 -3.59375 C 2.378906 -3.6875 2.671875 -3.734375 3.015625 -3.734375 L 2.890625 -3.09375 C 2.847656 -3.09375 2.785156 -3.09375 2.703125 -3.09375 C 1.941406 -3.09375 1.476562 -2.675781 1.3125 -1.84375 L 0.9375 0 L 0.265625 0 L 1 -3.703125 L 1.640625 -3.703125 Z M 1.546875 -3.15625 "/></g></g></g><g fill="#365b6d" fill-opacity="1"><g transform="translate(58.867056, 198.439332)"><g><path d="M 2.578125 -2.140625 L 3.90625 0 L 3.125 0 L 2.0625 -1.75 L 1.15625 -1.046875 L 0.9375 0 L 0.265625 0 L 1.3125 -5.1875 L 1.984375 -5.1875 L 1.3125 -1.890625 L 3.625 -3.703125 L 4.5625 -3.703125 Z M 2.578125 -2.140625 "/></g></g></g><g fill="#365b6d" fill-opacity="1"><g transform="translate(63.516723, 198.439332)"><g><path d="M 0.921875 -1.640625 L 0.921875 -1.59375 C 0.921875 -1.25 1.019531 -0.988281 1.21875 -0.8125 C 1.414062 -0.632812 1.707031 -0.546875 2.09375 -0.546875 C 2.320312 -0.546875 2.535156 -0.582031 2.734375 -0.65625 C 2.929688 -0.738281 3.097656 -0.84375 3.234375 -0.96875 L 3.53125 -0.484375 C 3.34375 -0.316406 3.117188 -0.1875 2.859375 -0.09375 C 2.597656 0 2.328125 0.046875 2.046875 0.046875 C 1.679688 0.046875 1.363281 -0.015625 1.09375 -0.140625 C 0.832031 -0.273438 0.628906 -0.460938 0.484375 -0.703125 C 0.335938 -0.953125 0.265625 -1.238281 0.265625 -1.5625 C 0.265625 -1.976562 0.351562 -2.347656 0.53125 -2.671875 C 0.707031 -3.003906 0.957031 -3.265625 1.28125 -3.453125 C 1.601562 -3.640625 1.960938 -3.734375 2.359375 -3.734375 C 2.859375 -3.734375 3.257812 -3.585938 3.5625 -3.296875 C 3.863281 -3.015625 4.015625 -2.628906 4.015625 -2.140625 C 4.015625 -1.984375 3.992188 -1.816406 3.953125 -1.640625 Z M 2.328125 -3.171875 C 1.992188 -3.171875 1.707031 -3.078125 1.46875 -2.890625 C 1.238281 -2.710938 1.078125 -2.457031 0.984375 -2.125 L 3.375 -2.125 C 3.394531 -2.457031 3.304688 -2.710938 3.109375 -2.890625 C 2.921875 -3.078125 2.660156 -3.171875 2.328125 -3.171875 Z M 2.328125 -3.171875 "/></g></g></g><g fill="#365b6d" fill-opacity="1"><g transform="translate(68.201348, 198.439332)"><g><path d="M 1.265625 -1.1875 C 1.253906 -1.113281 1.25 -1.046875 1.25 -0.984375 C 1.25 -0.835938 1.285156 -0.722656 1.359375 -0.640625 C 1.441406 -0.566406 1.566406 -0.53125 1.734375 -0.53125 C 1.929688 -0.53125 2.109375 -0.585938 2.265625 -0.703125 L 2.40625 -0.1875 C 2.175781 -0.03125 1.890625 0.046875 1.546875 0.046875 C 1.253906 0.046875 1.015625 -0.0351562 0.828125 -0.203125 C 0.648438 -0.367188 0.5625 -0.597656 0.5625 -0.890625 C 0.5625 -0.984375 0.570312 -1.078125 0.59375 -1.171875 L 0.984375 -3.15625 L 0.359375 -3.15625 L 0.46875 -3.703125 L 1.109375 -3.703125 L 1.265625 -4.515625 L 1.9375 -4.515625 L 1.78125 -3.703125 L 2.828125 -3.703125 L 2.71875 -3.15625 L 1.65625 -3.15625 Z M 1.265625 -1.1875 "/></g></g></g><g fill="#365b6d" fill-opacity="1"><g transform="translate(71.508553, 198.439332)"><g><path d="M 1 -3.703125 L 1.671875 -3.703125 L 0.9375 0 L 0.265625 0 Z M 1.53125 -4.421875 C 1.40625 -4.421875 1.300781 -4.457031 1.21875 -4.53125 C 1.144531 -4.613281 1.109375 -4.707031 1.109375 -4.8125 C 1.109375 -4.945312 1.15625 -5.054688 1.25 -5.140625 C 1.34375 -5.234375 1.457031 -5.28125 1.59375 -5.28125 C 1.71875 -5.28125 1.816406 -5.242188 1.890625 -5.171875 C 1.972656 -5.097656 2.015625 -5.003906 2.015625 -4.890625 C 2.015625 -4.742188 1.96875 -4.628906 1.875 -4.546875 C 1.789062 -4.460938 1.675781 -4.421875 1.53125 -4.421875 Z M 1.53125 -4.421875 "/></g></g></g><g fill="#365b6d" fill-opacity="1"><g transform="translate(73.871841, 198.439332)"><g><path d="M 2.90625 -3.734375 C 3.320312 -3.734375 3.644531 -3.625 3.875 -3.40625 C 4.113281 -3.195312 4.234375 -2.894531 4.234375 -2.5 C 4.234375 -2.375 4.222656 -2.234375 4.203125 -2.078125 L 3.78125 0 L 3.109375 0 L 3.53125 -2.078125 C 3.550781 -2.203125 3.5625 -2.300781 3.5625 -2.375 C 3.5625 -2.625 3.488281 -2.8125 3.34375 -2.9375 C 3.195312 -3.070312 2.984375 -3.140625 2.703125 -3.140625 C 2.335938 -3.140625 2.035156 -3.039062 1.796875 -2.84375 C 1.566406 -2.644531 1.410156 -2.347656 1.328125 -1.953125 L 0.9375 0 L 0.265625 0 L 1 -3.703125 L 1.640625 -3.703125 L 1.5625 -3.234375 C 1.894531 -3.566406 2.34375 -3.734375 2.90625 -3.734375 Z M 2.90625 -3.734375 "/></g></g></g><g fill="#365b6d" fill-opacity="1"><g transform="translate(79.045908, 198.439332)"><g><path d="M 4.546875 -3.703125 L 3.90625 -0.5 C 3.78125 0.15625 3.535156 0.632812 3.171875 0.9375 C 2.816406 1.238281 2.328125 1.390625 1.703125 1.390625 C 1.347656 1.390625 1.023438 1.34375 0.734375 1.25 C 0.453125 1.164062 0.207031 1.039062 0 0.875 L 0.375 0.359375 C 0.519531 0.492188 0.710938 0.597656 0.953125 0.671875 C 1.191406 0.753906 1.457031 0.796875 1.75 0.796875 C 2.175781 0.796875 2.503906 0.695312 2.734375 0.5 C 2.972656 0.3125 3.132812 0.015625 3.21875 -0.390625 L 3.28125 -0.65625 C 2.925781 -0.320312 2.476562 -0.15625 1.9375 -0.15625 C 1.613281 -0.15625 1.328125 -0.210938 1.078125 -0.328125 C 0.828125 -0.453125 0.628906 -0.628906 0.484375 -0.859375 C 0.347656 -1.085938 0.28125 -1.351562 0.28125 -1.65625 C 0.28125 -2.039062 0.367188 -2.390625 0.546875 -2.703125 C 0.734375 -3.023438 0.984375 -3.273438 1.296875 -3.453125 C 1.617188 -3.640625 1.984375 -3.734375 2.390625 -3.734375 C 2.710938 -3.734375 2.992188 -3.671875 3.234375 -3.546875 C 3.484375 -3.429688 3.664062 -3.257812 3.78125 -3.03125 L 3.90625 -3.703125 Z M 2.0625 -0.734375 C 2.34375 -0.734375 2.59375 -0.796875 2.8125 -0.921875 C 3.039062 -1.046875 3.210938 -1.21875 3.328125 -1.4375 C 3.453125 -1.664062 3.515625 -1.914062 3.515625 -2.1875 C 3.515625 -2.488281 3.414062 -2.722656 3.21875 -2.890625 C 3.03125 -3.066406 2.765625 -3.15625 2.421875 -3.15625 C 2.140625 -3.15625 1.882812 -3.09375 1.65625 -2.96875 C 1.4375 -2.84375 1.265625 -2.664062 1.140625 -2.4375 C 1.023438 -2.21875 0.96875 -1.972656 0.96875 -1.703125 C 0.96875 -1.398438 1.0625 -1.160156 1.25 -0.984375 C 1.445312 -0.816406 1.71875 -0.734375 2.0625 -0.734375 Z M 2.0625 -0.734375 "/></g></g></g><g fill="#365b6d" fill-opacity="1"><g transform="translate(84.276169, 198.439332)"><g><path d="M 0.46875 -0.71875 C 0.5625 -0.71875 0.640625 -0.679688 0.703125 -0.609375 C 0.773438 -0.546875 0.8125 -0.460938 0.8125 -0.359375 C 0.8125 -0.296875 0.800781 -0.238281 0.78125 -0.1875 C 0.757812 -0.144531 0.726562 -0.0820312 0.6875 0 L 0.15625 1.015625 L -0.1875 1.015625 L 0.265625 0 C 0.203125 -0.03125 0.148438 -0.0703125 0.109375 -0.125 C 0.078125 -0.1875 0.0625 -0.253906 0.0625 -0.328125 C 0.0625 -0.441406 0.0976562 -0.535156 0.171875 -0.609375 C 0.253906 -0.679688 0.351562 -0.71875 0.46875 -0.71875 Z M 0.46875 -0.71875 "/></g></g></g><g fill="#365b6d" fill-opacity="1"><g transform="translate(86.170996, 198.439332)"><g/></g></g><g fill="#365b6d" fill-opacity="1"><g transform="translate(88.415424, 198.439332)"><g><path d="M 1.125 -1.109375 C 1.101562 -0.992188 1.09375 -0.914062 1.09375 -0.875 C 1.09375 -0.550781 1.269531 -0.390625 1.625 -0.390625 C 1.832031 -0.390625 2.019531 -0.453125 2.1875 -0.578125 L 2.3125 -0.203125 C 2.101562 -0.046875 1.832031 0.03125 1.5 0.03125 C 1.21875 0.03125 0.992188 -0.0390625 0.828125 -0.1875 C 0.671875 -0.332031 0.59375 -0.535156 0.59375 -0.796875 C 0.59375 -0.898438 0.601562 -1 0.625 -1.09375 L 1.046875 -3.25 L 0.40625 -3.25 L 0.484375 -3.671875 L 1.140625 -3.671875 L 1.296875 -4.484375 L 1.796875 -4.484375 L 1.640625 -3.671875 L 2.75 -3.671875 L 2.671875 -3.25 L 1.546875 -3.25 Z M 1.125 -1.109375 "/></g></g></g><g fill="#365b6d" fill-opacity="1"><g transform="translate(91.666699, 198.439332)"><g><path d="M 2.84375 -3.703125 C 3.257812 -3.703125 3.582031 -3.59375 3.8125 -3.375 C 4.039062 -3.164062 4.15625 -2.875 4.15625 -2.5 C 4.15625 -2.375 4.144531 -2.238281 4.125 -2.09375 L 3.703125 0 L 3.203125 0 L 3.625 -2.09375 C 3.644531 -2.226562 3.65625 -2.34375 3.65625 -2.4375 C 3.65625 -2.695312 3.570312 -2.894531 3.40625 -3.03125 C 3.25 -3.175781 3.015625 -3.25 2.703125 -3.25 C 2.304688 -3.25 1.976562 -3.140625 1.71875 -2.921875 C 1.46875 -2.710938 1.300781 -2.394531 1.21875 -1.96875 L 0.828125 0 L 0.328125 0 L 1.359375 -5.1875 L 1.859375 -5.1875 L 1.453125 -3.125 C 1.785156 -3.507812 2.25 -3.703125 2.84375 -3.703125 Z M 2.84375 -3.703125 "/></g></g></g><g fill="#365b6d" fill-opacity="1"><g transform="translate(96.812795, 198.439332)"><g><path d="M 1.046875 -3.671875 L 1.546875 -3.671875 L 0.828125 0 L 0.328125 0 Z M 1.515625 -4.484375 C 1.410156 -4.484375 1.328125 -4.515625 1.265625 -4.578125 C 1.203125 -4.640625 1.171875 -4.71875 1.171875 -4.8125 C 1.171875 -4.914062 1.207031 -5.003906 1.28125 -5.078125 C 1.351562 -5.148438 1.445312 -5.1875 1.5625 -5.1875 C 1.65625 -5.1875 1.734375 -5.15625 1.796875 -5.09375 C 1.867188 -5.03125 1.90625 -4.957031 1.90625 -4.875 C 1.90625 -4.757812 1.863281 -4.664062 1.78125 -4.59375 C 1.707031 -4.519531 1.617188 -4.484375 1.515625 -4.484375 Z M 1.515625 -4.484375 "/></g></g></g><g fill="#365b6d" fill-opacity="1"><g transform="translate(99.106167, 198.439332)"><g><path d="M 2.84375 -3.703125 C 3.257812 -3.703125 3.582031 -3.59375 3.8125 -3.375 C 4.039062 -3.164062 4.15625 -2.875 4.15625 -2.5 C 4.15625 -2.375 4.144531 -2.238281 4.125 -2.09375 L 3.703125 0 L 3.203125 0 L 3.625 -2.09375 C 3.644531 -2.226562 3.65625 -2.34375 3.65625 -2.4375 C 3.65625 -2.695312 3.570312 -2.894531 3.40625 -3.03125 C 3.25 -3.175781 3.015625 -3.25 2.703125 -3.25 C 2.304688 -3.25 1.976562 -3.140625 1.71875 -2.921875 C 1.46875 -2.710938 1.300781 -2.394531 1.21875 -1.96875 L 0.828125 0 L 0.328125 0 L 1.046875 -3.671875 L 1.53125 -3.671875 L 1.40625 -3.09375 C 1.757812 -3.5 2.238281 -3.703125 2.84375 -3.703125 Z M 2.84375 -3.703125 "/></g></g></g><g fill="#365b6d" fill-opacity="1"><g transform="translate(104.252264, 198.439332)"><g><path d="M 2.453125 -2.15625 L 3.765625 0 L 3.1875 0 L 2.0625 -1.859375 L 1.03125 -1.0625 L 0.828125 0 L 0.328125 0 L 1.359375 -5.1875 L 1.859375 -5.1875 L 1.15625 -1.703125 L 3.6875 -3.671875 L 4.390625 -3.671875 Z M 2.453125 -2.15625 "/></g></g></g><g fill="#365b6d" fill-opacity="1"><g transform="translate(108.790059, 198.439332)"><g/></g></g><g fill="#365b6d" fill-opacity="1"><g transform="translate(111.033073, 198.439332)"><g><path d="M 6.546875 -4.890625 L 5.5625 0 L 4.890625 0 L 5.609375 -3.53125 L 3.296875 -0.59375 L 2.96875 -0.59375 L 1.75 -3.609375 L 1.03125 0 L 0.359375 0 L 1.34375 -4.890625 L 1.90625 -4.890625 L 3.265625 -1.453125 L 5.9375 -4.890625 Z M 6.546875 -4.890625 "/></g></g></g><g fill="#365b6d" fill-opacity="1"><g transform="translate(118.122945, 198.439332)"><g><path d="M 0.921875 -1.640625 L 0.921875 -1.59375 C 0.921875 -1.25 1.019531 -0.988281 1.21875 -0.8125 C 1.414062 -0.632812 1.707031 -0.546875 2.09375 -0.546875 C 2.320312 -0.546875 2.535156 -0.582031 2.734375 -0.65625 C 2.929688 -0.738281 3.097656 -0.84375 3.234375 -0.96875 L 3.53125 -0.484375 C 3.34375 -0.316406 3.117188 -0.1875 2.859375 -0.09375 C 2.597656 0 2.328125 0.046875 2.046875 0.046875 C 1.679688 0.046875 1.363281 -0.015625 1.09375 -0.140625 C 0.832031 -0.273438 0.628906 -0.460938 0.484375 -0.703125 C 0.335938 -0.953125 0.265625 -1.238281 0.265625 -1.5625 C 0.265625 -1.976562 0.351562 -2.347656 0.53125 -2.671875 C 0.707031 -3.003906 0.957031 -3.265625 1.28125 -3.453125 C 1.601562 -3.640625 1.960938 -3.734375 2.359375 -3.734375 C 2.859375 -3.734375 3.257812 -3.585938 3.5625 -3.296875 C 3.863281 -3.015625 4.015625 -2.628906 4.015625 -2.140625 C 4.015625 -1.984375 3.992188 -1.816406 3.953125 -1.640625 Z M 2.328125 -3.171875 C 1.992188 -3.171875 1.707031 -3.078125 1.46875 -2.890625 C 1.238281 -2.710938 1.078125 -2.457031 0.984375 -2.125 L 3.375 -2.125 C 3.394531 -2.457031 3.304688 -2.710938 3.109375 -2.890625 C 2.921875 -3.078125 2.660156 -3.171875 2.328125 -3.171875 Z M 2.328125 -3.171875 "/></g></g></g><g fill="#365b6d" fill-opacity="1"><g transform="translate(122.80757, 198.439332)"><g><path d="M 4.796875 -5.1875 L 3.75 0 L 3.109375 0 L 3.203125 -0.453125 C 3.035156 -0.296875 2.84375 -0.171875 2.625 -0.078125 C 2.40625 0.00390625 2.164062 0.046875 1.90625 0.046875 C 1.582031 0.046875 1.296875 -0.015625 1.046875 -0.140625 C 0.804688 -0.273438 0.613281 -0.460938 0.46875 -0.703125 C 0.332031 -0.941406 0.265625 -1.226562 0.265625 -1.5625 C 0.265625 -1.976562 0.351562 -2.347656 0.53125 -2.671875 C 0.71875 -3.003906 0.96875 -3.265625 1.28125 -3.453125 C 1.601562 -3.640625 1.960938 -3.734375 2.359375 -3.734375 C 2.671875 -3.734375 2.941406 -3.675781 3.171875 -3.5625 C 3.410156 -3.445312 3.585938 -3.28125 3.703125 -3.0625 L 4.125 -5.1875 Z M 2.046875 -0.546875 C 2.316406 -0.546875 2.5625 -0.609375 2.78125 -0.734375 C 3.007812 -0.867188 3.1875 -1.054688 3.3125 -1.296875 C 3.4375 -1.535156 3.5 -1.804688 3.5 -2.109375 C 3.5 -2.441406 3.398438 -2.695312 3.203125 -2.875 C 3.015625 -3.0625 2.742188 -3.15625 2.390625 -3.15625 C 2.117188 -3.15625 1.867188 -3.085938 1.640625 -2.953125 C 1.421875 -2.816406 1.25 -2.628906 1.125 -2.390625 C 1 -2.160156 0.9375 -1.890625 0.9375 -1.578125 C 0.9375 -1.253906 1.03125 -1 1.21875 -0.8125 C 1.414062 -0.632812 1.691406 -0.546875 2.046875 -0.546875 Z M 2.046875 -0.546875 "/></g></g></g><g fill="#365b6d" fill-opacity="1"><g transform="translate(127.988625, 198.439332)"><g><path d="M 1 -3.703125 L 1.671875 -3.703125 L 0.9375 0 L 0.265625 0 Z M 1.53125 -4.421875 C 1.40625 -4.421875 1.300781 -4.457031 1.21875 -4.53125 C 1.144531 -4.613281 1.109375 -4.707031 1.109375 -4.8125 C 1.109375 -4.945312 1.15625 -5.054688 1.25 -5.140625 C 1.34375 -5.234375 1.457031 -5.28125 1.59375 -5.28125 C 1.71875 -5.28125 1.816406 -5.242188 1.890625 -5.171875 C 1.972656 -5.097656 2.015625 -5.003906 2.015625 -4.890625 C 2.015625 -4.742188 1.96875 -4.628906 1.875 -4.546875 C 1.789062 -4.460938 1.675781 -4.421875 1.53125 -4.421875 Z M 1.53125 -4.421875 "/></g></g></g><g fill="#365b6d" fill-opacity="1"><g transform="translate(130.351913, 198.439332)"><g><path d="M 4.484375 -3.703125 L 3.75 0 L 3.109375 0 L 3.203125 -0.453125 C 3.035156 -0.296875 2.84375 -0.171875 2.625 -0.078125 C 2.40625 0.00390625 2.164062 0.046875 1.90625 0.046875 C 1.582031 0.046875 1.296875 -0.015625 1.046875 -0.140625 C 0.804688 -0.273438 0.613281 -0.460938 0.46875 -0.703125 C 0.332031 -0.941406 0.265625 -1.226562 0.265625 -1.5625 C 0.265625 -1.976562 0.351562 -2.347656 0.53125 -2.671875 C 0.71875 -3.003906 0.96875 -3.265625 1.28125 -3.453125 C 1.601562 -3.640625 1.960938 -3.734375 2.359375 -3.734375 C 2.671875 -3.734375 2.941406 -3.675781 3.171875 -3.5625 C 3.398438 -3.457031 3.570312 -3.296875 3.6875 -3.078125 L 3.828125 -3.703125 Z M 2.046875 -0.546875 C 2.316406 -0.546875 2.5625 -0.609375 2.78125 -0.734375 C 3.007812 -0.867188 3.1875 -1.054688 3.3125 -1.296875 C 3.4375 -1.535156 3.5 -1.804688 3.5 -2.109375 C 3.5 -2.441406 3.398438 -2.695312 3.203125 -2.875 C 3.015625 -3.0625 2.742188 -3.15625 2.390625 -3.15625 C 2.117188 -3.15625 1.867188 -3.085938 1.640625 -2.953125 C 1.421875 -2.816406 1.25 -2.628906 1.125 -2.390625 C 1 -2.160156 0.9375 -1.890625 0.9375 -1.578125 C 0.9375 -1.253906 1.03125 -1 1.21875 -0.8125 C 1.414062 -0.632812 1.691406 -0.546875 2.046875 -0.546875 Z M 2.046875 -0.546875 "/></g></g></g><g fill="#365b6d" fill-opacity="1"><g transform="translate(135.532167, 198.439332)"><g><path d="M 0.46875 -0.71875 C 0.5625 -0.71875 0.640625 -0.679688 0.703125 -0.609375 C 0.773438 -0.546875 0.8125 -0.460938 0.8125 -0.359375 C 0.8125 -0.296875 0.800781 -0.238281 0.78125 -0.1875 C 0.757812 -0.144531 0.726562 -0.0820312 0.6875 0 L 0.15625 1.015625 L -0.1875 1.015625 L 0.265625 0 C 0.203125 -0.03125 0.148438 -0.0703125 0.109375 -0.125 C 0.078125 -0.1875 0.0625 -0.253906 0.0625 -0.328125 C 0.0625 -0.441406 0.0976562 -0.535156 0.171875 -0.609375 C 0.253906 -0.679688 0.351562 -0.71875 0.46875 -0.71875 Z M 0.46875 -0.71875 "/></g></g></g><g fill="#365b6d" fill-opacity="1"><g transform="translate(137.426994, 198.439332)"><g/></g></g><g fill="#365b6d" fill-opacity="1"><g transform="translate(139.671422, 198.439332)"><g><path d="M 1.125 -1.109375 C 1.101562 -0.992188 1.09375 -0.914062 1.09375 -0.875 C 1.09375 -0.550781 1.269531 -0.390625 1.625 -0.390625 C 1.832031 -0.390625 2.019531 -0.453125 2.1875 -0.578125 L 2.3125 -0.203125 C 2.101562 -0.046875 1.832031 0.03125 1.5 0.03125 C 1.21875 0.03125 0.992188 -0.0390625 0.828125 -0.1875 C 0.671875 -0.332031 0.59375 -0.535156 0.59375 -0.796875 C 0.59375 -0.898438 0.601562 -1 0.625 -1.09375 L 1.046875 -3.25 L 0.40625 -3.25 L 0.484375 -3.671875 L 1.140625 -3.671875 L 1.296875 -4.484375 L 1.796875 -4.484375 L 1.640625 -3.671875 L 2.75 -3.671875 L 2.671875 -3.25 L 1.546875 -3.25 Z M 1.125 -1.109375 "/></g></g></g><g fill="#365b6d" fill-opacity="1"><g transform="translate(142.922696, 198.439332)"><g><path d="M 2.84375 -3.703125 C 3.257812 -3.703125 3.582031 -3.59375 3.8125 -3.375 C 4.039062 -3.164062 4.15625 -2.875 4.15625 -2.5 C 4.15625 -2.375 4.144531 -2.238281 4.125 -2.09375 L 3.703125 0 L 3.203125 0 L 3.625 -2.09375 C 3.644531 -2.226562 3.65625 -2.34375 3.65625 -2.4375 C 3.65625 -2.695312 3.570312 -2.894531 3.40625 -3.03125 C 3.25 -3.175781 3.015625 -3.25 2.703125 -3.25 C 2.304688 -3.25 1.976562 -3.140625 1.71875 -2.921875 C 1.46875 -2.710938 1.300781 -2.394531 1.21875 -1.96875 L 0.828125 0 L 0.328125 0 L 1.359375 -5.1875 L 1.859375 -5.1875 L 1.453125 -3.125 C 1.785156 -3.507812 2.25 -3.703125 2.84375 -3.703125 Z M 2.84375 -3.703125 "/></g></g></g><g fill="#365b6d" fill-opacity="1"><g transform="translate(148.068793, 198.439332)"><g><path d="M 1.046875 -3.671875 L 1.546875 -3.671875 L 0.828125 0 L 0.328125 0 Z M 1.515625 -4.484375 C 1.410156 -4.484375 1.328125 -4.515625 1.265625 -4.578125 C 1.203125 -4.640625 1.171875 -4.71875 1.171875 -4.8125 C 1.171875 -4.914062 1.207031 -5.003906 1.28125 -5.078125 C 1.351562 -5.148438 1.445312 -5.1875 1.5625 -5.1875 C 1.65625 -5.1875 1.734375 -5.15625 1.796875 -5.09375 C 1.867188 -5.03125 1.90625 -4.957031 1.90625 -4.875 C 1.90625 -4.757812 1.863281 -4.664062 1.78125 -4.59375 C 1.707031 -4.519531 1.617188 -4.484375 1.515625 -4.484375 Z M 1.515625 -4.484375 "/></g></g></g><g fill="#365b6d" fill-opacity="1"><g transform="translate(150.362164, 198.439332)"><g><path d="M 2.84375 -3.703125 C 3.257812 -3.703125 3.582031 -3.59375 3.8125 -3.375 C 4.039062 -3.164062 4.15625 -2.875 4.15625 -2.5 C 4.15625 -2.375 4.144531 -2.238281 4.125 -2.09375 L 3.703125 0 L 3.203125 0 L 3.625 -2.09375 C 3.644531 -2.226562 3.65625 -2.34375 3.65625 -2.4375 C 3.65625 -2.695312 3.570312 -2.894531 3.40625 -3.03125 C 3.25 -3.175781 3.015625 -3.25 2.703125 -3.25 C 2.304688 -3.25 1.976562 -3.140625 1.71875 -2.921875 C 1.46875 -2.710938 1.300781 -2.394531 1.21875 -1.96875 L 0.828125 0 L 0.328125 0 L 1.046875 -3.671875 L 1.53125 -3.671875 L 1.40625 -3.09375 C 1.757812 -3.5 2.238281 -3.703125 2.84375 -3.703125 Z M 2.84375 -3.703125 "/></g></g></g><g fill="#365b6d" fill-opacity="1"><g transform="translate(155.508261, 198.439332)"><g><path d="M 2.453125 -2.15625 L 3.765625 0 L 3.1875 0 L 2.0625 -1.859375 L 1.03125 -1.0625 L 0.828125 0 L 0.328125 0 L 1.359375 -5.1875 L 1.859375 -5.1875 L 1.15625 -1.703125 L 3.6875 -3.671875 L 4.390625 -3.671875 Z M 2.453125 -2.15625 "/></g></g></g><g fill="#365b6d" fill-opacity="1"><g transform="translate(160.046056, 198.439332)"><g/></g></g><g fill="#365b6d" fill-opacity="1"><g transform="translate(162.289068, 198.439332)"><g><path d="M 6.546875 -4.890625 L 5.5625 0 L 4.890625 0 L 5.609375 -3.53125 L 3.296875 -0.59375 L 2.96875 -0.59375 L 1.75 -3.609375 L 1.03125 0 L 0.359375 0 L 1.34375 -4.890625 L 1.90625 -4.890625 L 3.265625 -1.453125 L 5.9375 -4.890625 Z M 6.546875 -4.890625 "/></g></g></g><g fill="#365b6d" fill-opacity="1"><g transform="translate(169.37894, 198.439332)"><g><path d="M 4.484375 -3.703125 L 3.75 0 L 3.109375 0 L 3.203125 -0.453125 C 3.035156 -0.296875 2.84375 -0.171875 2.625 -0.078125 C 2.40625 0.00390625 2.164062 0.046875 1.90625 0.046875 C 1.582031 0.046875 1.296875 -0.015625 1.046875 -0.140625 C 0.804688 -0.273438 0.613281 -0.460938 0.46875 -0.703125 C 0.332031 -0.941406 0.265625 -1.226562 0.265625 -1.5625 C 0.265625 -1.976562 0.351562 -2.347656 0.53125 -2.671875 C 0.71875 -3.003906 0.96875 -3.265625 1.28125 -3.453125 C 1.601562 -3.640625 1.960938 -3.734375 2.359375 -3.734375 C 2.671875 -3.734375 2.941406 -3.675781 3.171875 -3.5625 C 3.398438 -3.457031 3.570312 -3.296875 3.6875 -3.078125 L 3.828125 -3.703125 Z M 2.046875 -0.546875 C 2.316406 -0.546875 2.5625 -0.609375 2.78125 -0.734375 C 3.007812 -0.867188 3.1875 -1.054688 3.3125 -1.296875 C 3.4375 -1.535156 3.5 -1.804688 3.5 -2.109375 C 3.5 -2.441406 3.398438 -2.695312 3.203125 -2.875 C 3.015625 -3.0625 2.742188 -3.15625 2.390625 -3.15625 C 2.117188 -3.15625 1.867188 -3.085938 1.640625 -2.953125 C 1.421875 -2.816406 1.25 -2.628906 1.125 -2.390625 C 1 -2.160156 0.9375 -1.890625 0.9375 -1.578125 C 0.9375 -1.253906 1.03125 -1 1.21875 -0.8125 C 1.414062 -0.632812 1.691406 -0.546875 2.046875 -0.546875 Z M 2.046875 -0.546875 "/></g></g></g><g fill="#365b6d" fill-opacity="1"><g transform="translate(174.559995, 198.439332)"><g><path d="M 1.546875 -3.15625 C 1.703125 -3.351562 1.898438 -3.5 2.140625 -3.59375 C 2.378906 -3.6875 2.671875 -3.734375 3.015625 -3.734375 L 2.890625 -3.09375 C 2.847656 -3.09375 2.785156 -3.09375 2.703125 -3.09375 C 1.941406 -3.09375 1.476562 -2.675781 1.3125 -1.84375 L 0.9375 0 L 0.265625 0 L 1 -3.703125 L 1.640625 -3.703125 Z M 1.546875 -3.15625 "/></g></g></g><g fill="#365b6d" fill-opacity="1"><g transform="translate(177.83923, 198.439332)"><g><path d="M -0.421875 1.390625 C -0.753906 1.390625 -1.023438 1.316406 -1.234375 1.171875 L -0.9375 0.65625 C -0.789062 0.769531 -0.613281 0.828125 -0.40625 0.828125 C -0.21875 0.828125 -0.0703125 0.773438 0.03125 0.671875 C 0.132812 0.566406 0.210938 0.398438 0.265625 0.171875 L 1.03125 -3.703125 L 1.703125 -3.703125 L 0.921875 0.171875 C 0.765625 0.984375 0.316406 1.390625 -0.421875 1.390625 Z M 1.5625 -4.421875 C 1.4375 -4.421875 1.332031 -4.457031 1.25 -4.53125 C 1.175781 -4.613281 1.140625 -4.707031 1.140625 -4.8125 C 1.140625 -4.945312 1.1875 -5.054688 1.28125 -5.140625 C 1.375 -5.234375 1.488281 -5.28125 1.625 -5.28125 C 1.75 -5.28125 1.847656 -5.242188 1.921875 -5.171875 C 2.003906 -5.097656 2.046875 -5.003906 2.046875 -4.890625 C 2.046875 -4.742188 2 -4.628906 1.90625 -4.546875 C 1.820312 -4.460938 1.707031 -4.421875 1.5625 -4.421875 Z M 1.5625 -4.421875 "/></g></g></g><g fill="#365b6d" fill-opacity="1"><g transform="translate(180.237476, 198.439332)"><g><path d="M 0.921875 -1.640625 L 0.921875 -1.59375 C 0.921875 -1.25 1.019531 -0.988281 1.21875 -0.8125 C 1.414062 -0.632812 1.707031 -0.546875 2.09375 -0.546875 C 2.320312 -0.546875 2.535156 -0.582031 2.734375 -0.65625 C 2.929688 -0.738281 3.097656 -0.84375 3.234375 -0.96875 L 3.53125 -0.484375 C 3.34375 -0.316406 3.117188 -0.1875 2.859375 -0.09375 C 2.597656 0 2.328125 0.046875 2.046875 0.046875 C 1.679688 0.046875 1.363281 -0.015625 1.09375 -0.140625 C 0.832031 -0.273438 0.628906 -0.460938 0.484375 -0.703125 C 0.335938 -0.953125 0.265625 -1.238281 0.265625 -1.5625 C 0.265625 -1.976562 0.351562 -2.347656 0.53125 -2.671875 C 0.707031 -3.003906 0.957031 -3.265625 1.28125 -3.453125 C 1.601562 -3.640625 1.960938 -3.734375 2.359375 -3.734375 C 2.859375 -3.734375 3.257812 -3.585938 3.5625 -3.296875 C 3.863281 -3.015625 4.015625 -2.628906 4.015625 -2.140625 C 4.015625 -1.984375 3.992188 -1.816406 3.953125 -1.640625 Z M 2.328125 -3.171875 C 1.992188 -3.171875 1.707031 -3.078125 1.46875 -2.890625 C 1.238281 -2.710938 1.078125 -2.457031 0.984375 -2.125 L 3.375 -2.125 C 3.394531 -2.457031 3.304688 -2.710938 3.109375 -2.890625 C 2.921875 -3.078125 2.660156 -3.171875 2.328125 -3.171875 Z M 2.328125 -3.171875 "/></g></g></g><g fill="#365b6d" fill-opacity="1"><g transform="translate(184.922101, 198.439332)"><g><path d="M 1.3125 -5.1875 L 1.984375 -5.1875 L 0.9375 0 L 0.265625 0 Z M 1.3125 -5.1875 "/></g></g></g><g fill="#365b6d" fill-opacity="1"><g transform="translate(187.285389, 198.439332)"><g><path d="M 1.3125 -5.1875 L 1.984375 -5.1875 L 0.9375 0 L 0.265625 0 Z M 1.3125 -5.1875 "/></g></g></g><g fill="#365b6d" fill-opacity="1"><g transform="translate(189.648677, 198.439332)"><g><path d="M 4.484375 -3.703125 L 3.75 0 L 3.109375 0 L 3.203125 -0.453125 C 3.035156 -0.296875 2.84375 -0.171875 2.625 -0.078125 C 2.40625 0.00390625 2.164062 0.046875 1.90625 0.046875 C 1.582031 0.046875 1.296875 -0.015625 1.046875 -0.140625 C 0.804688 -0.273438 0.613281 -0.460938 0.46875 -0.703125 C 0.332031 -0.941406 0.265625 -1.226562 0.265625 -1.5625 C 0.265625 -1.976562 0.351562 -2.347656 0.53125 -2.671875 C 0.71875 -3.003906 0.96875 -3.265625 1.28125 -3.453125 C 1.601562 -3.640625 1.960938 -3.734375 2.359375 -3.734375 C 2.671875 -3.734375 2.941406 -3.675781 3.171875 -3.5625 C 3.398438 -3.457031 3.570312 -3.296875 3.6875 -3.078125 L 3.828125 -3.703125 Z M 2.046875 -0.546875 C 2.316406 -0.546875 2.5625 -0.609375 2.78125 -0.734375 C 3.007812 -0.867188 3.1875 -1.054688 3.3125 -1.296875 C 3.4375 -1.535156 3.5 -1.804688 3.5 -2.109375 C 3.5 -2.441406 3.398438 -2.695312 3.203125 -2.875 C 3.015625 -3.0625 2.742188 -3.15625 2.390625 -3.15625 C 2.117188 -3.15625 1.867188 -3.085938 1.640625 -2.953125 C 1.421875 -2.816406 1.25 -2.628906 1.125 -2.390625 C 1 -2.160156 0.9375 -1.890625 0.9375 -1.578125 C 0.9375 -1.253906 1.03125 -1 1.21875 -0.8125 C 1.414062 -0.632812 1.691406 -0.546875 2.046875 -0.546875 Z M 2.046875 -0.546875 "/></g></g></g><g fill="#365b6d" fill-opacity="1"><g transform="translate(194.829732, 198.439332)"><g><path d="M 0.484375 0.046875 C 0.359375 0.046875 0.253906 0.00390625 0.171875 -0.078125 C 0.0859375 -0.171875 0.046875 -0.28125 0.046875 -0.40625 C 0.046875 -0.550781 0.09375 -0.671875 0.1875 -0.765625 C 0.28125 -0.867188 0.394531 -0.921875 0.53125 -0.921875 C 0.65625 -0.921875 0.757812 -0.875 0.84375 -0.78125 C 0.9375 -0.695312 0.984375 -0.59375 0.984375 -0.46875 C 0.984375 -0.320312 0.929688 -0.195312 0.828125 -0.09375 C 0.734375 0 0.617188 0.046875 0.484375 0.046875 Z M 0.484375 0.046875 "/></g></g></g><g fill="#365b6d" fill-opacity="1"><g transform="translate(196.829434, 198.439332)"><g><path d="M 1.046875 -4.890625 L 1.640625 -4.890625 L 1.21875 -3 L 0.71875 -3 Z M 1.046875 -4.890625 "/></g></g></g><g clip-path="url(#b36ccd06c9)"><g clip-path="url(#ca615ef645)"><g clip-path="url(#c21078992f)"><path fill="#365b6d" d="M 198.277344 202.433594 C 197.859375 202.382812 197.457031 202.308594 197.035156 202.289062 C 196.664062 202.273438 196.292969 202.253906 195.921875 202.238281 C 195.257812 202.207031 194.59375 202.175781 193.929688 202.148438 C 192.5625 202.085938 191.191406 202.03125 189.824219 201.980469 C 187.085938 201.878906 184.34375 201.804688 181.605469 201.773438 C 176.027344 201.707031 170.445312 201.84375 164.890625 202.3125 C 163.296875 202.445312 161.707031 202.609375 160.121094 202.800781 C 159.347656 202.894531 158.578125 202.988281 157.808594 203.105469 C 156.894531 203.246094 155.929688 203.339844 155.042969 203.589844 C 154.6875 203.691406 154.527344 204.066406 154.917969 204.246094 C 155.167969 204.363281 155.390625 204.511719 155.664062 204.570312 C 155.988281 204.640625 156.246094 204.792969 156.515625 204.972656 C 156.578125 205.015625 156.621094 204.972656 156.574219 204.910156 C 156.472656 204.777344 156.359375 204.664062 156.382812 204.488281 C 156.386719 204.421875 156.4375 204.363281 156.445312 204.296875 C 156.445312 204.273438 156.441406 204.25 156.433594 204.226562 C 161.625 203.507812 166.84375 203.070312 172.085938 202.910156 C 177.519531 202.742188 182.960938 202.820312 188.394531 202.996094 C 189.9375 203.046875 191.480469 203.105469 193.027344 203.171875 C 193.179688 203.175781 193.335938 203.183594 193.488281 203.191406 C 191.835938 203.394531 190.167969 203.503906 188.503906 203.523438 C 188.417969 203.527344 188.453125 203.609375 188.511719 203.671875 C 188.359375 203.65625 188.207031 203.636719 188.050781 203.621094 C 187.164062 203.535156 186.277344 203.476562 185.386719 203.421875 C 183.535156 203.308594 181.6875 203.242188 179.832031 203.234375 C 175.992188 203.21875 172.152344 203.429688 168.339844 203.902344 C 167.265625 204.035156 166.191406 204.183594 165.125 204.351562 C 164.621094 204.429688 164.117188 204.515625 163.617188 204.609375 C 163.117188 204.703125 162.601562 204.769531 162.121094 204.933594 C 161.964844 204.988281 162.027344 205.144531 162.113281 205.230469 C 162.242188 205.359375 162.441406 205.425781 162.617188 205.414062 C 163.574219 205.355469 164.539062 205.15625 165.484375 205.023438 C 166.410156 204.890625 167.335938 204.773438 168.265625 204.675781 C 170.089844 204.480469 171.921875 204.347656 173.757812 204.253906 C 177.304688 204.066406 180.867188 204.089844 184.410156 204.34375 C 185.417969 204.414062 186.421875 204.519531 187.429688 204.609375 C 188.648438 204.71875 189.910156 204.917969 191.128906 204.78125 C 191.296875 204.765625 191.511719 204.683594 191.429688 204.484375 C 191.390625 204.386719 190.863281 204.085938 190.847656 204.179688 C 190.890625 203.933594 190.324219 203.914062 190.140625 203.886719 C 189.957031 203.863281 189.777344 203.835938 189.59375 203.8125 C 190.792969 203.867188 191.992188 203.859375 193.195312 203.824219 C 194.800781 203.773438 196.367188 203.546875 197.949219 203.296875 C 198.203125 203.257812 198.613281 203.171875 198.714844 202.890625 C 198.804688 202.636719 198.492188 202.460938 198.277344 202.433594 " fill-opacity="1" fill-rule="nonzero"/></g></g></g></svg>