<?xml version="1.0" encoding="utf-8"?>
<!-- Generator: Adobe Illustrator 27.6.1, SVG Export Plug-In . SVG Version: 6.00 Build 0)  -->
<svg version="1.1" id="Layer_1" xmlns="http://www.w3.org/2000/svg" xmlns:xlink="http://www.w3.org/1999/xlink" x="0px" y="0px"
	 viewBox="0 0 595.28 548.08" style="enable-background:new 0 0 595.28 548.08;" xml:space="preserve">
<style type="text/css">
	.st0{fill:#E9D90E;}
</style>
<g>
	<path class="st0" d="M149.42,450.64h-28.4c-2.87,0-5.2-2.33-5.2-5.2v-28.4c0-4.63,5.6-6.95,8.87-3.68l27.99,27.99l0.41,0.41
		C156.37,445.04,154.05,450.64,149.42,450.64z"/>
	<polygon class="st0" points="460.69,410.89 460.69,450.64 436.33,450.64 289.86,304.17 255.25,269.55 115.82,130.12 115.82,105.77 
		155.56,105.77 287.3,237.5 	"/>
	<path class="st0" d="M427.09,105.77h28.4c2.87,0,5.2,2.33,5.2,5.2v28.4c0,4.63-5.6,6.95-8.87,3.68l-27.99-27.99l-0.41-0.41
		C420.14,111.37,422.46,105.77,427.09,105.77z"/>
</g>
</svg>
